<?xml version="1.0" standalone="no"?>
<!DOCTYPE svg PUBLIC "-//W3C//DTD SVG 20010904//EN"
 "http://www.w3.org/TR/2001/REC-SVG-20010904/DTD/svg10.dtd">
<svg version="1.0" xmlns="http://www.w3.org/2000/svg"
 width="1024.000000pt" height="1024.000000pt" viewBox="0 0 1024.000000 1024.000000"
 preserveAspectRatio="xMidYMid meet">

<g transform="translate(0.000000,1024.000000) scale(0.100000,-0.100000)"
fill="currentColor" stroke="none">
<path d="M9279 9333 c-82 -69 -233 -207 -449 -412 -339 -322 -381 -363 -625
-596 -126 -121 -273 -260 -325 -310 -139 -131 -363 -349 -625 -606 -126 -124
-518 -504 -870 -844 -352 -340 -703 -680 -780 -754 -77 -75 -216 -210 -310
-301 -93 -91 -318 -309 -500 -485 -292 -283 -520 -504 -862 -840 -60 -58 -114
-103 -130 -106 -16 -4 -40 -10 -56 -13 -34 -8 -102 -68 -133 -118 -17 -26 -35
-40 -61 -47 -53 -14 -110 -65 -136 -120 -13 -27 -36 -54 -56 -66 -93 -56 -155
-143 -150 -209 3 -29 -5 -40 -71 -101 -41 -38 -120 -112 -175 -165 -241 -230
-433 -391 -802 -673 -232 -178 -267 -212 -279 -278 -9 -45 -16 -52 -80 -89
-60 -34 -87 -70 -104 -140 -10 -41 -17 -50 -62 -76 -51 -30 -75 -63 -89 -122
-9 -41 30 -221 64 -295 51 -111 105 -150 277 -198 184 -51 272 -32 341 72 24
36 36 45 80 56 71 18 112 52 144 118 22 45 32 55 52 55 57 0 93 31 191 164
329 445 509 671 821 1028 133 153 149 168 179 168 71 0 151 66 191 155 15 34
25 45 42 45 58 0 124 73 137 151 6 37 13 45 52 66 95 50 133 108 128 192 l-3
59 305 328 c389 419 986 1059 1149 1234 70 74 217 232 326 350 110 118 283
305 385 415 195 210 335 361 925 1000 198 214 412 444 475 510 63 66 236 251
384 410 148 160 294 317 325 350 409 436 833 894 874 943 35 43 34 66 -2 103
-38 38 -58 37 -112 -8z m71 -32 c0 -7 -3450 -3456 -4876 -4875 l-471 -468 -34
31 -34 31 50 46 c28 26 400 394 829 818 428 424 782 774 787 777 5 3 213 208
462 455 249 247 569 564 712 704 143 140 397 389 565 554 564 555 747 733
1140 1110 80 77 242 234 360 350 306 300 491 476 501 476 5 0 9 -4 9 -9z
m-991 -1078 c-36 -38 -146 -151 -245 -252 -98 -102 -291 -298 -429 -436 -137
-138 -324 -327 -415 -421 -161 -165 -370 -378 -895 -914 -142 -146 -645 -654
-1116 -1130 -1048 -1059 -1117 -1129 -1136 -1157 -17 -26 -46 -31 -41 -8 2 8
401 414 888 902 787 789 1515 1527 2185 2213 121 124 343 349 495 501 151 152
385 388 520 523 134 135 246 246 249 246 3 0 -24 -30 -60 -67z m-4482 -4279
c83 -63 262 -246 274 -281 22 -67 -20 -133 -83 -133 -25 0 -57 27 -194 162
-92 90 -167 173 -171 187 -5 20 2 31 35 63 52 48 77 48 139 2z m-100 -316
c100 -100 186 -193 192 -208 13 -40 -11 -90 -44 -90 -17 0 -28 7 -34 23 -5 12
-94 106 -199 209 l-190 187 19 30 c36 60 54 50 256 -151z m-288 -39 c72 -62
255 -245 288 -287 43 -56 44 -98 4 -141 -32 -34 -52 -39 -70 -17 -9 11 -5 19
17 38 38 32 55 64 46 90 -9 28 -160 174 -197 189 -56 24 -92 -37 -46 -80 34
-32 14 -37 -23 -6 -84 70 -178 167 -178 184 0 11 14 31 32 46 39 33 74 29 127
-16z m-156 -250 c17 -14 -4 -37 -365 -380 -313 -299 -514 -487 -781 -730 -21
-19 -15 -37 19 -63 l26 -18 56 54 c32 29 95 89 142 133 78 73 405 384 505 480
23 22 138 133 257 248 118 114 218 207 222 207 23 0 -21 -49 -208 -230 -352
-341 -937 -924 -948 -943 -7 -14 -2 -28 27 -62 48 -59 179 -165 203 -165 13 0
42 29 83 83 140 182 435 544 595 730 147 170 351 396 362 401 20 9 14 -9 -14
-40 -14 -16 -46 -54 -72 -84 -26 -30 -78 -91 -117 -135 -39 -44 -100 -115
-135 -159 -36 -43 -96 -115 -134 -160 -102 -121 -97 -115 -245 -300 -75 -95
-166 -213 -201 -262 -78 -110 -99 -134 -118 -134 -8 0 -101 85 -206 188 -105
103 -209 201 -231 217 -62 45 -68 55 -47 78 9 11 61 53 115 93 112 84 124 93
337 264 221 177 469 397 715 633 101 96 111 104 125 89 8 -10 23 -24 33 -33z
m-1350 -1231 c92 -63 250 -214 321 -306 64 -84 70 -124 26 -170 -42 -45 -58
-38 -155 67 -44 47 -139 147 -212 222 -73 75 -133 143 -133 152 0 25 49 57 87
57 20 0 49 -10 66 -22z m-126 -246 c38 -33 114 -107 170 -166 100 -104 126
-147 115 -188 -6 -25 -52 -68 -71 -68 -9 0 -48 40 -88 88 -39 48 -121 137
-182 198 -61 61 -111 117 -111 125 0 22 52 69 77 69 13 0 50 -24 90 -58z m-64
-305 c11 -13 18 -30 15 -37 -6 -18 -98 68 -98 92 0 20 1 20 32 -4 18 -14 41
-37 51 -51z"/>
<path d="M3847 3842 c-10 -10 -17 -34 -17 -54 0 -30 9 -44 63 -96 112 -110
153 -130 202 -98 46 30 32 69 -59 165 -90 94 -154 122 -189 83z"/>
<path d="M3733 3599 c-8 -8 -7 -16 2 -28 82 -101 170 -201 176 -201 18 0 29
39 19 66 -11 29 -157 174 -175 174 -6 0 -16 -5 -22 -11z"/>
<path d="M3391 3561 c-23 -32 -27 -51 -11 -51 10 0 50 58 50 73 0 16 -20 5
-39 -22z"/>
<path d="M2044 1926 c-8 -32 27 -85 119 -180 74 -77 97 -87 137 -66 10 5 21
22 24 36 6 24 -1 36 -61 96 -128 130 -205 170 -219 114z"/>
<path d="M1883 1749 c-13 -5 -23 -15 -23 -23 0 -19 86 -122 141 -169 46 -40
69 -46 89 -22 19 23 -13 85 -75 144 -65 61 -103 81 -132 70z"/>
</g>
</svg>
