<?xml version="1.0" standalone="no"?>
<!DOCTYPE svg PUBLIC "-//W3C//DTD SVG 20010904//EN"
 "http://www.w3.org/TR/2001/REC-SVG-20010904/DTD/svg10.dtd">
<svg version="1.0" xmlns="http://www.w3.org/2000/svg"
 width="1024.000000pt" height="1024.000000pt" viewBox="0 0 1024.000000 1024.000000"
 preserveAspectRatio="xMidYMid meet">

<g transform="translate(0.000000,1024.000000) scale(0.100000,-0.100000)"
fill="currentColor" stroke="none">
<path d="M3884 6355 c-56 -8 -166 -29 -245 -46 -260 -57 -291 -61 -419 -61
-112 0 -195 12 -250 36 -11 5 -34 -21 -87 -96 -39 -57 -107 -147 -152 -200
-71 -85 -91 -102 -154 -132 -64 -32 -105 -45 -187 -60 -20 -4 -72 -74 -255
-346 -677 -1003 -855 -1273 -855 -1296 0 -13 13 -38 29 -56 l29 -33 289 2
c158 2 578 7 933 13 848 13 1987 13 1995 0 4 -7 -73 -10 -222 -11 -125 -1
-266 -4 -313 -8 l-85 -6 145 -8 c80 -4 213 -7 295 -7 83 0 175 -3 205 -7 99
-12 24 -22 -180 -23 -241 -2 -288 -14 -95 -26 181 -10 1561 -8 1685 3 l95 8
-179 8 c-99 4 -182 9 -184 12 -16 16 38 21 294 26 299 7 391 18 166 20 -73 1
-136 3 -142 4 -5 1 -65 4 -132 5 -112 2 -118 3 -68 12 80 13 1189 12 2208 -3
488 -6 904 -9 924 -5 42 8 78 46 78 82 0 13 -103 179 -243 391 -283 428 -323
490 -444 678 -86 134 -176 273 -305 472 l-60 92 -56 11 c-170 34 -241 77 -343
211 -68 90 -81 99 -141 99 -72 0 -320 37 -528 79 -439 89 -580 106 -829 98
-290 -9 -533 -78 -719 -204 -62 -42 -160 -141 -189 -190 -14 -24 -26 -43 -28
-43 -2 0 -13 19 -24 43 -59 121 -197 242 -376 331 -124 61 -198 86 -335 117
-126 27 -402 34 -546 14z m441 -70 c206 -30 405 -103 539 -199 115 -82 247
-243 260 -318 3 -16 3 -28 2 -28 -2 0 -26 30 -53 68 -70 95 -218 215 -293 236
-14 4 2 -10 35 -32 72 -47 182 -156 231 -229 38 -57 78 -142 71 -149 -2 -2
-27 27 -55 65 -63 84 -130 146 -212 194 -34 21 -64 37 -67 37 -3 0 23 -22 58
-49 36 -26 87 -73 114 -103 68 -75 145 -199 152 -245 l5 -38 -38 55 c-54 77
-127 147 -212 204 -82 54 -109 58 -34 5 73 -52 140 -118 187 -184 54 -76 95
-158 95 -187 -1 -23 -1 -23 -15 -3 -60 81 -168 179 -258 234 -53 32 -57 20 -5
-14 136 -90 279 -281 277 -370 l0 -30 -17 25 c-34 49 -125 146 -156 164 -26
17 -23 11 19 -35 54 -57 101 -122 129 -177 19 -36 38 -132 26 -132 -3 0 -22
21 -41 46 -34 46 -89 95 -144 129 -17 11 4 -17 51 -66 80 -84 127 -159 141
-229 6 -33 5 -32 -68 42 -41 42 -90 84 -109 94 -29 14 -22 4 40 -57 83 -82
126 -152 135 -220 5 -37 4 -42 -7 -28 -64 77 -131 139 -148 139 -5 0 16 -27
48 -61 126 -135 154 -216 34 -100 -44 42 -94 85 -113 95 -26 15 -18 3 37 -51
79 -78 149 -199 159 -274 l6 -44 -25 59 c-79 185 -234 313 -509 421 -364 142
-775 185 -1257 130 -74 -8 -327 -47 -562 -85 -235 -39 -429 -70 -432 -70 -4 0
23 59 187 405 117 248 337 680 394 778 l58 98 35 -7 c189 -35 292 -27 682 56
244 51 437 62 623 35z m2124 -81 c68 -9 198 -31 290 -50 367 -77 487 -97 644
-110 l88 -7 43 -61 c53 -75 88 -134 369 -616 123 -212 250 -428 281 -480 31
-52 56 -97 56 -101 0 -7 -48 -13 -190 -25 -132 -10 -365 15 -655 71 -372 73
-654 110 -890 118 -251 9 -538 -23 -718 -79 -221 -70 -425 -211 -514 -357 -20
-31 -38 -56 -40 -53 -2 2 4 23 13 47 80 203 325 379 643 460 63 16 123 29 135
30 12 0 15 3 8 6 -38 15 -311 -51 -445 -108 -124 -52 -278 -174 -337 -267 -25
-39 -15 257 10 315 22 50 94 129 162 180 27 19 47 37 44 40 -11 11 -74 -35
-147 -108 -43 -43 -81 -79 -83 -79 -9 0 8 108 21 135 21 40 118 140 171 177
24 17 41 32 38 35 -11 12 -101 -54 -160 -118 -37 -40 -67 -65 -71 -59 -9 14 4
130 17 154 22 40 81 113 131 160 35 33 42 43 22 31 -49 -29 -143 -115 -150
-136 -12 -35 -24 -19 -21 29 3 86 102 205 246 297 38 25 74 45 79 45 5 0 14 7
21 15 11 14 10 14 -16 5 -86 -33 -243 -147 -299 -218 l-37 -47 7 45 c10 66 45
118 133 201 81 76 193 146 334 209 43 19 73 36 68 38 -19 7 -239 -96 -325
-152 -48 -31 -114 -84 -146 -118 -32 -33 -59 -57 -59 -51 0 5 7 31 16 58 12
34 36 68 83 115 75 75 131 116 246 178 94 51 54 47 -48 -4 -98 -49 -152 -88
-229 -165 -73 -72 -83 -70 -42 7 68 130 251 256 467 323 221 68 439 81 736 45z
m-3923 -520 c-15 -31 -29 -55 -32 -51 -3 3 2 19 10 36 9 16 16 36 16 44 0 14
21 39 28 32 2 -2 -8 -29 -22 -61z m5292 60 c26 -7 181 -233 294 -429 41 -71
109 -184 150 -250 119 -192 128 -207 309 -522 61 -106 82 -159 59 -151 -6 2
-76 107 -154 233 -188 303 -350 560 -418 665 -63 96 -278 449 -278 456 0 5 10
5 38 -2z m-5182 -48 c-9 -14 -25 -47 -35 -73 -11 -26 -100 -212 -199 -413 -99
-201 -178 -366 -177 -368 9 -10 460 57 695 103 116 22 262 44 500 77 125 17
596 17 711 0 311 -45 567 -154 759 -324 54 -47 160 -175 160 -192 0 -4 -35 25
-77 64 -205 188 -438 301 -724 349 -383 65 -756 44 -1449 -84 -293 -54 -589
-104 -664 -111 l-69 -7 33 59 c18 32 63 109 100 169 117 193 348 602 428 758
8 16 16 26 19 23 3 -3 -2 -17 -11 -30z m5331 -15 c11 -14 58 -87 105 -161 47
-74 134 -211 193 -305 104 -162 244 -386 400 -635 40 -63 107 -168 149 -233
43 -65 76 -120 74 -123 -5 -4 -219 15 -458 41 -74 7 -232 21 -350 30 -335 25
-631 53 -930 91 -603 75 -856 93 -1084 75 -144 -11 -299 -37 -358 -60 -54 -20
-27 0 37 29 93 42 264 87 379 101 194 23 515 1 1081 -76 138 -18 275 -36 305
-40 30 -3 102 -13 160 -21 104 -15 660 -68 836 -80 95 -7 210 1 233 16 11 6 8
17 -13 51 -15 24 -98 154 -183 289 -85 135 -183 290 -218 345 -78 125 -425
704 -425 710 0 12 50 -20 67 -44z m-5581 -168 c-240 -475 -655 -1134 -697
-1107 -12 7 61 144 197 371 57 95 104 175 104 178 0 3 5 11 10 18 12 14 140
227 140 233 0 3 107 179 224 369 49 79 102 145 117 145 5 0 -38 -93 -95 -207z
m-27 105 c-12 -24 -27 -50 -34 -58 -7 -8 -62 -100 -122 -205 -168 -291 -236
-399 -483 -770 -80 -121 -164 -250 -185 -287 -28 -48 -49 -71 -69 -78 -16 -5
-31 -8 -34 -5 -3 2 82 137 189 299 107 162 241 368 299 458 99 155 160 250
365 567 87 134 120 169 74 79z m1601 -738 c225 -17 473 -75 630 -148 103 -47
239 -134 300 -191 49 -46 38 -44 -26 4 -61 47 -184 112 -284 151 -193 74 -387
104 -730 111 -284 6 -466 -10 -785 -67 -339 -61 -1052 -179 -1087 -180 -16 0
-7 27 15 47 18 17 49 24 157 37 161 19 280 40 530 96 600 132 918 167 1280
140z m2765 -10 c165 -14 364 -44 595 -90 404 -80 488 -90 784 -91 195 0 274
-9 216 -23 -57 -14 -242 -26 -389 -26 -159 0 -241 7 -411 35 -389 65 -719 109
-928 126 -221 17 -495 -1 -689 -46 -132 -31 -326 -108 -396 -157 -16 -11 -30
-18 -33 -15 -6 5 107 92 146 112 121 62 381 145 520 164 150 22 400 26 585 11z
m-2735 -101 c236 -22 460 -74 615 -143 111 -50 361 -233 343 -252 -4 -4 -36
16 -70 45 -82 67 -258 154 -378 186 -114 31 -320 65 -375 64 l-40 -1 50 -9
c173 -31 320 -74 438 -128 59 -26 131 -71 115 -71 -3 0 -53 18 -111 40 -168
63 -302 83 -547 83 -210 0 -388 -16 -844 -79 -707 -96 -1366 -154 -1366 -118
0 21 50 46 84 41 97 -15 553 40 861 103 306 63 549 105 810 141 48 6 40 7 -40
3 -110 -4 -327 -34 -655 -89 -345 -58 -382 -64 -496 -80 -110 -16 -322 -40
-448 -52 -65 -6 -68 -5 -58 13 25 46 55 61 137 68 143 12 495 66 695 107 582
119 967 157 1280 128z m2925 -38 c127 -16 280 -37 340 -46 61 -8 196 -24 300
-35 105 -11 298 -31 430 -45 132 -14 271 -25 308 -25 74 0 101 -9 118 -42 9
-16 8 -22 -2 -29 -23 -14 -426 -10 -585 6 -146 15 -239 28 -699 100 -126 19
-261 37 -300 40 l-70 4 55 -10 c132 -24 583 -111 670 -129 231 -48 634 -90
858 -90 119 0 134 -2 152 -20 11 -11 20 -23 20 -27 0 -6 -366 4 -440 12 -19 2
-80 6 -135 10 -55 4 -217 20 -360 36 -243 27 -327 38 -690 89 -322 46 -599 59
-783 39 -231 -25 -400 -72 -546 -154 -55 -30 -102 -53 -104 -50 -3 3 -3 6 -1
8 2 1 29 21 59 44 140 105 396 194 650 228 l95 13 -80 1 c-172 2 -457 -60
-598 -131 -83 -41 -92 -30 -17 21 151 100 317 164 510 195 141 23 156 24 395
21 176 -2 266 -9 450 -34z m-2785 -192 c138 -12 262 -38 350 -72 77 -30 58
-33 -81 -11 -82 13 -155 15 -393 11 -298 -5 -428 -16 -826 -72 -252 -36 -661
-82 -835 -95 -82 -6 -251 -20 -375 -30 -124 -11 -255 -22 -292 -25 -45 -4 -68
-3 -68 4 0 20 39 50 72 55 44 6 261 25 373 31 87 6 477 52 950 114 498 65 722
88 970 99 22 1 92 -3 155 -9z m565 -204 c62 -31 73 -97 24 -146 -25 -25 -35
-19 -20 10 9 16 8 29 -3 54 -11 27 -21 36 -49 41 -53 10 -846 -18 -1837 -64
-118 -5 -318 -14 -445 -20 -648 -29 -842 -40 -970 -55 -36 -5 -38 -4 -21 9 10
8 41 17 70 20 47 6 532 35 1171 71 149 8 466 28 705 45 239 16 539 34 665 40
127 6 255 12 285 14 30 2 129 3 220 2 144 -1 170 -4 205 -21z m2075 -34 c278
-17 678 -39 890 -51 326 -18 659 -37 1172 -67 61 -4 95 -10 91 -16 -4 -6 -47
-8 -117 -4 -308 17 -699 36 -846 41 -91 4 -201 9 -245 11 -149 10 -1157 44
-1608 56 -422 10 -449 10 -468 -7 -11 -10 -19 -30 -19 -51 0 -18 -4 -33 -9
-33 -10 0 -31 54 -31 81 0 24 45 54 100 68 70 17 525 5 1090 -28z m-1469 -51
c85 -16 269 -112 269 -140 0 -4 -35 5 -77 22 -116 44 -187 58 -304 58 -123 0
-213 -20 -334 -74 l-80 -35 400 -2 c421 -1 467 -12 104 -23 -211 -7 -539 1
-539 13 1 11 123 97 175 124 116 58 264 80 386 57z"/>
<path d="M4043 4673 c9 -2 23 -2 30 0 6 3 -1 5 -18 5 -16 0 -22 -2 -12 -5z"/>
</g>
</svg>
