<?xml version="1.0" standalone="no"?>
<!DOCTYPE svg PUBLIC "-//W3C//DTD SVG 20010904//EN"
 "http://www.w3.org/TR/2001/REC-SVG-20010904/DTD/svg10.dtd">
<svg version="1.0" xmlns="http://www.w3.org/2000/svg"
 width="1024.000000pt" height="1024.000000pt" viewBox="0 0 1024.000000 1024.000000"
 preserveAspectRatio="xMidYMid meet">

<g transform="translate(0.000000,1024.000000) scale(0.100000,-0.100000)"
fill="currentColor" stroke="none">
<path d="M8878 8516 c-15 -8 -53 -20 -85 -27 -32 -7 -87 -25 -123 -41 -65 -29
-210 -115 -210 -125 0 -2 28 11 63 30 83 46 225 102 317 124 59 14 113 18 255
17 99 -1 194 -6 210 -12 23 -8 26 -11 10 -12 -14 -2 -12 -5 10 -10 23 -6 13
-8 -40 -9 -102 -2 -178 -16 -327 -62 -128 -39 -183 -59 -275 -100 -24 -11 -46
-19 -50 -19 -10 0 -202 -110 -207 -119 -3 -4 61 25 142 64 284 140 561 216
777 213 l90 -1 -80 -8 c-237 -25 -584 -139 -810 -267 -196 -111 -378 -212
-383 -212 -2 0 -30 -15 -61 -34 -31 -18 -123 -69 -206 -111 -209 -109 -316
-169 -415 -232 -47 -30 -151 -96 -232 -146 -250 -157 -479 -306 -618 -402
-209 -145 -740 -556 -1104 -854 -131 -108 -253 -207 -271 -221 -56 -44 -364
-319 -525 -470 -283 -265 -1307 -1298 -1356 -1368 -8 -12 -12 -22 -8 -22 5 0
3 -5 -4 -12 -17 -17 -54 -18 -72 -2 -9 7 -26 17 -38 21 -21 8 -13 19 120 155
79 80 185 190 237 244 406 427 1065 1070 1300 1269 52 44 136 116 185 160 211
187 542 453 771 620 83 60 227 166 320 236 94 69 195 142 225 160 30 18 100
63 155 99 198 130 604 380 745 460 36 20 106 61 155 92 119 73 196 115 400
218 215 109 336 190 510 341 247 217 488 314 788 321 82 2 120 6 110 12 -21
11 -253 9 -313 -3 -103 -21 -149 -35 -143 -44 3 -6 1 -7 -5 -3 -13 8 -122 -32
-122 -44 0 -5 -8 -7 -17 -3 -10 3 -15 3 -11 -2 4 -4 -14 -18 -40 -31 -26 -12
-69 -40 -97 -63 -27 -22 -84 -66 -125 -97 -41 -32 -99 -79 -127 -105 -79 -71
-333 -243 -333 -226 0 3 19 17 43 32 23 15 78 63 122 106 44 43 93 87 108 99
15 12 26 25 23 27 -5 6 -173 -136 -215 -180 -13 -14 -29 -23 -36 -21 -7 3 -19
-4 -27 -15 -24 -34 -158 -123 -158 -105 0 3 47 65 104 138 277 351 549 526
901 580 74 11 -347 -6 -476 -19 -384 -41 -542 -82 -824 -214 -185 -87 -402
-268 -540 -451 -27 -36 -52 -67 -56 -70 -3 -3 -36 -45 -73 -94 -60 -82 -81
-103 -56 -58 5 9 24 53 41 97 51 126 107 218 192 316 114 131 244 227 402 297
39 17 67 32 62 32 -22 1 -350 -90 -357 -99 -3 -3 -42 -30 -87 -59 -137 -90
-218 -190 -315 -392 -28 -58 -54 -113 -59 -122 -5 -10 -9 -23 -9 -30 0 -7 24
32 53 87 106 200 214 341 322 417 52 37 232 131 275 143 35 10 26 4 -64 -44
-102 -55 -168 -104 -236 -177 -132 -140 -167 -214 -295 -609 -75 -231 -87
-261 -151 -353 -24 -35 -44 -67 -44 -72 0 -5 -6 -7 -13 -4 -8 3 -19 -7 -26
-22 -6 -15 -14 -24 -17 -21 -3 3 8 29 25 58 32 59 106 248 98 255 -2 2 -14
-24 -27 -58 -26 -75 -87 -188 -100 -188 -6 0 -10 -5 -10 -11 0 -17 -68 -97
-93 -111 -19 -9 -20 -9 -11 3 22 28 151 395 142 404 -2 3 -19 -37 -37 -88 -46
-128 -148 -331 -195 -384 -21 -24 -40 -42 -42 -40 -2 1 14 37 36 79 42 82 103
245 97 261 -2 6 -14 -16 -27 -49 -31 -81 -123 -251 -127 -237 -2 6 17 52 42
103 26 50 45 94 43 96 -3 2 -22 -30 -43 -71 -21 -41 -42 -75 -47 -75 -4 0 -8
-5 -8 -11 0 -6 -10 -25 -22 -42 -15 -22 -17 -28 -5 -18 26 21 21 5 -17 -52
-51 -77 -106 -136 -106 -114 0 9 4 17 10 17 5 0 13 12 16 28 4 15 12 38 19 52
7 14 27 72 45 130 33 106 146 365 244 560 93 184 229 374 374 520 63 63 80 77
52 43 -23 -29 -40 -53 -38 -53 3 0 -15 -21 -39 -47 -24 -27 -58 -77 -75 -113
-17 -36 -45 -94 -63 -130 -38 -76 -66 -140 -60 -140 3 0 22 37 44 83 22 45 58
112 81 150 22 37 38 73 34 79 -4 6 -3 8 3 5 6 -4 35 28 64 71 91 131 155 191
269 249 60 31 11 19 -67 -17 -267 -122 -520 -449 -733 -946 -26 -60 -51 -124
-55 -142 -12 -58 -20 -33 -17 55 7 189 71 417 159 568 88 151 244 319 361 389
34 21 62 39 62 42 0 2 -26 -8 -57 -22 -32 -14 -85 -37 -118 -51 -80 -34 -175
-82 -175 -89 0 -3 5 -2 12 2 7 5 8 3 4 -5 -5 -7 -14 -10 -22 -7 -8 3 -13 1
-11 -5 1 -6 -23 -29 -53 -52 -114 -88 -225 -254 -285 -427 -29 -83 -60 -219
-51 -227 3 -3 8 8 12 23 56 239 189 476 344 611 112 98 152 129 163 125 5 -1
17 3 26 9 9 6 -4 -6 -29 -27 -154 -132 -266 -294 -314 -454 -33 -107 -57 -266
-62 -400 -3 -74 -12 -169 -20 -210 -17 -91 -108 -281 -154 -325 l-32 -30 20
40 c29 58 38 117 46 300 4 91 4 101 -4 55 -50 -282 -55 -300 -121 -417 -27
-49 -42 -56 -28 -15 36 109 59 225 69 345 11 136 8 199 -5 95 -11 -93 -35
-231 -51 -298 -22 -90 -78 -206 -104 -213 -11 -3 -20 -4 -20 -2 0 1 11 33 25
70 19 49 31 115 45 249 11 99 23 195 26 211 4 17 4 27 0 24 -6 -5 -31 -132
-40 -199 -3 -19 -12 -69 -21 -110 -9 -41 -19 -86 -21 -100 -11 -62 -70 -200
-101 -236 l-33 -39 15 50 c17 59 18 68 6 60 -11 -6 -7 31 15 144 8 40 13 76
10 78 -3 3 -8 -8 -11 -23 -4 -16 -13 -55 -21 -87 -8 -32 -14 -69 -14 -82 0
-30 -72 -186 -94 -204 -10 -9 -16 -10 -16 -2 0 6 4 11 8 11 4 0 13 14 19 30 7
18 7 30 2 30 -6 0 -8 4 -5 8 11 19 64 333 69 412 6 94 8 99 -35 -125 -41 -215
-91 -362 -156 -458 l-19 -29 -1 29 c0 15 8 49 18 74 24 60 70 286 69 335 -1
26 -7 6 -19 -61 -21 -115 -38 -180 -39 -150 -1 11 -17 -23 -35 -75 -38 -110
-100 -245 -117 -255 -14 -9 -8 34 19 135 11 41 23 95 26 120 23 177 61 420 76
495 44 212 118 407 211 558 47 75 188 247 245 297 71 62 75 60 17 -9 -133
-158 -225 -322 -276 -491 -20 -63 -38 -133 -41 -155 -4 -22 11 13 31 78 22 68
40 110 43 101 4 -11 10 -2 19 27 20 65 86 193 150 289 77 117 238 282 296 305
25 9 45 21 45 26 0 13 2 13 -78 -26 -40 -19 -82 -46 -94 -60 -12 -14 -28 -23
-34 -21 -12 5 -86 -43 -99 -63 -3 -6 -30 -27 -60 -45 -81 -52 -202 -214 -270
-362 -63 -136 -114 -316 -151 -534 -14 -85 -27 -156 -29 -158 -1 -2 -6 41 -10
95 -4 54 -9 113 -11 132 -7 56 15 236 37 309 40 127 108 241 208 346 67 71 64
72 -24 2 -62 -49 -235 -218 -235 -229 0 -4 6 -5 13 -1 8 5 8 2 -2 -9 -15 -19
-26 -23 -15 -5 16 25 -16 -4 -38 -35 -15 -21 -16 -27 -5 -18 14 11 18 11 23
-4 4 -9 1 -22 -5 -28 -9 -9 -11 -7 -6 8 4 12 -1 8 -14 -10 -11 -16 -21 -37
-21 -45 1 -9 7 -5 16 10 16 27 15 18 -7 -42 -7 -21 -20 -38 -29 -39 -10 0 -11
-2 -2 -6 6 -2 9 -10 5 -16 -9 -15 -10 -20 -28 -151 -9 -60 -13 -111 -11 -113
6 -7 28 106 30 150 0 20 4 37 8 37 5 0 8 9 8 20 0 26 75 224 100 265 11 18 18
40 14 48 -3 8 -1 18 5 22 7 4 9 -1 5 -12 -4 -11 2 -8 15 9 12 14 31 37 42 50
20 22 20 22 0 -12 -78 -128 -112 -273 -112 -476 1 -108 15 -246 27 -266 21
-34 -21 -322 -62 -432 -31 -82 -85 -167 -92 -146 -3 8 0 16 7 18 6 2 9 7 7 10
-2 4 4 41 15 82 10 41 24 137 30 212 11 144 7 211 -6 98 -23 -204 -115 -491
-174 -544 -20 -19 -20 -19 -2 20 22 48 46 158 38 179 -4 8 -3 15 1 15 4 0 8
53 9 118 l1 117 -13 -75 c-18 -103 -74 -331 -86 -349 -9 -15 -5 15 7 59 2 9
-2 8 -11 -4 -8 -11 -15 -28 -15 -38 0 -40 -85 -216 -98 -203 -3 3 1 20 10 38
33 65 48 238 48 564 0 355 12 468 66 633 42 125 71 178 133 244 37 40 40 45
15 28 -18 -12 -46 -38 -63 -57 -30 -34 -49 -47 -35 -22 10 15 -19 -6 -64 -47
-18 -17 -35 -30 -38 -28 -2 1 -5 -1 -5 -5 -1 -5 -14 -24 -29 -43 -43 -54 -107
-187 -130 -270 -26 -94 -50 -265 -48 -350 1 -62 1 -60 13 40 22 180 52 295
113 425 63 136 79 161 141 225 41 42 42 43 22 10 -45 -71 -89 -177 -107 -255
-15 -67 -18 -134 -20 -415 -4 -552 -9 -591 -84 -730 -23 -43 -23 -43 -5 53 14
72 23 408 10 396 -2 -3 -7 -52 -10 -109 -7 -133 -21 -232 -47 -340 -20 -80
-38 -122 -38 -89 -1 8 -7 3 -16 -11 -10 -17 -13 -18 -9 -5 15 41 24 89 19 97
-3 4 0 8 5 8 13 0 14 267 2 340 -5 32 -9 -4 -14 -130 -5 -140 -11 -195 -32
-274 -32 -123 -49 -154 -38 -71 5 33 7 233 5 445 -4 508 12 657 91 820 37 78
110 176 136 185 10 3 27 15 37 27 19 21 19 21 -6 8 -40 -21 -118 -87 -217
-184 -84 -82 -115 -120 -80 -100 8 5 8 3 -2 -9 -7 -9 -16 -15 -20 -12 -8 4
-167 -182 -170 -200 -1 -5 -8 -13 -16 -18 -29 -16 -110 -137 -152 -227 -50
-108 -83 -240 -109 -435 -16 -126 -16 -225 1 -510 4 -67 4 -69 -9 -35 -35 92
-87 276 -107 375 -38 197 -13 427 63 569 11 23 27 53 35 68 8 15 18 30 24 33
5 4 9 11 9 18 0 21 -220 -206 -265 -273 -95 -143 -129 -269 -129 -480 0 -120
5 -157 43 -340 41 -197 62 -395 44 -423 -4 -6 -8 -20 -9 -32 -1 -11 -11 -40
-22 -65 l-19 -45 2 85 c2 47 -1 96 -5 110 l-8 25 -1 -24 c-1 -14 -6 -21 -13
-18 -10 3 -14 -16 -16 -71 -3 -59 -34 -202 -45 -202 -1 0 -2 64 -3 143 0 134
-2 150 -42 297 -106 393 -114 527 -46 743 24 79 53 142 54 120 0 -6 -5 -24
-11 -40 -39 -100 -30 -366 18 -531 19 -67 28 -61 14 10 -15 78 -26 240 -24
348 2 115 22 210 63 291 37 72 27 69 -33 -9 -70 -91 -133 -218 -152 -306 -31
-142 -11 -344 56 -552 25 -80 54 -234 31 -164 -13 38 -51 110 -82 155 -15 22
-49 82 -76 134 l-49 94 1 116 c0 91 5 128 22 174 11 31 18 57 16 57 -10 0 -56
-113 -56 -136 0 -13 -3 -24 -7 -24 -3 0 -6 -36 -6 -80 0 -91 -2 -91 -70 10
-35 52 -37 53 -29 20 5 -19 7 -85 6 -147 -4 -183 24 -271 152 -462 79 -119
108 -199 112 -306 3 -86 -2 -119 -17 -109 -5 3 -7 13 -4 23 6 20 -19 122 -40
159 l-16 27 7 -33 c11 -60 22 -147 18 -151 -1 -2 -7 12 -12 30 -8 32 -9 30
-15 -32 -8 -69 -34 -159 -46 -159 -4 0 -4 21 0 48 4 26 8 66 8 89 1 23 5 43
10 45 14 5 -13 131 -44 208 -33 81 -49 115 -103 211 -47 85 -52 101 -22 74 23
-20 27 -10 6 14 -7 9 -35 57 -60 106 -82 156 -85 132 -9 -59 23 -60 41 -111
39 -113 -2 -2 -32 16 -67 40 -68 47 -128 81 -135 75 -2 -2 20 -19 49 -38 141
-91 201 -169 261 -339 28 -77 51 -215 39 -234 -3 -5 -18 23 -32 64 -15 41 -45
101 -68 134 -51 74 -129 162 -137 154 -3 -3 17 -36 45 -74 108 -149 153 -284
130 -398 -6 -34 -14 -77 -16 -96 -10 -76 -17 -39 -13 59 5 96 3 113 -24 195
-16 50 -44 111 -64 137 -37 52 -112 111 -159 128 l-30 10 30 -23 c109 -81 161
-157 194 -279 30 -111 25 -139 -13 -78 -53 84 -162 184 -230 210 -40 15 -31 5
29 -35 73 -49 164 -150 199 -222 56 -112 31 -209 -63 -252 -36 -16 -52 -30
-62 -54 -13 -34 -47 -77 -61 -77 -19 0 -92 -62 -107 -92 -9 -18 -46 -55 -83
-82 -37 -28 -63 -53 -58 -56 17 -10 -14 -48 -100 -122 -128 -110 -267 -245
-691 -668 -319 -318 -396 -401 -449 -480 -56 -84 -170 -269 -220 -355 -9 -16
-36 -61 -59 -99 -23 -37 -38 -66 -34 -65 4 2 39 22 76 44 38 22 94 54 125 70
31 17 109 59 172 95 63 35 130 71 148 81 53 28 115 79 152 126 19 24 58 63 85
86 42 35 208 202 305 306 263 283 685 720 688 712 8 -24 122 76 122 108 0 5
27 31 60 56 40 31 69 63 85 95 14 27 33 51 44 55 10 3 40 25 65 49 33 30 46
50 46 70 0 43 17 65 56 72 50 9 108 -11 155 -53 21 -19 39 -31 39 -27 0 18
-59 70 -100 89 l-43 20 34 6 c43 9 90 -10 130 -53 31 -34 69 -108 69 -137 1
-14 2 -14 11 2 13 22 3 68 -27 129 -33 65 -68 94 -126 106 -41 8 -55 6 -86 -9
-49 -26 -71 -24 -38 2 15 12 38 22 51 22 15 0 22 4 18 10 -4 7 0 8 13 3 47
-19 87 -27 114 -21 71 16 199 -82 235 -180 25 -68 34 -76 28 -24 -13 106 -107
198 -244 239 -83 25 -93 46 -18 36 53 -7 105 -30 173 -75 22 -14 51 -33 65
-42 36 -21 89 -114 97 -168 6 -41 0 -85 -22 -146 -6 -18 -5 -18 10 2 9 12 22
47 28 78 16 82 -9 168 -69 235 -52 58 -159 124 -224 139 -24 5 -57 13 -74 17
-29 6 -29 7 19 19 115 30 289 -28 381 -126 48 -52 95 -142 95 -184 0 -13 5
-27 10 -30 17 -11 11 40 -14 114 -13 39 -20 71 -16 71 4 0 43 -35 87 -77 56
-55 89 -97 111 -142 18 -35 32 -56 32 -45 0 25 -64 148 -101 195 -30 39 -126
118 -189 157 -49 31 -159 82 -175 82 -8 0 -17 5 -20 10 -14 23 148 -17 320
-78 110 -39 208 -112 293 -217 l33 -40 -26 53 c-14 29 -42 71 -63 94 -20 23
-30 39 -22 36 8 -4 44 -19 80 -33 90 -38 194 -54 335 -54 l120 0 -50 18 c-75
27 -132 58 -173 95 -84 74 -383 286 -405 286 -7 0 -25 7 -41 15 -16 8 -46 18
-68 21 -66 11 -55 26 14 19 154 -14 266 -50 413 -131 300 -165 375 -187 545
-161 52 8 82 15 66 16 -44 2 -108 38 -195 111 -43 37 -95 77 -115 89 -38 24
-48 38 -18 26 259 -108 469 -124 665 -49 68 26 344 201 333 211 -3 3 -23 -5
-43 -19 -85 -55 -237 -91 -434 -103 -121 -7 -256 11 -383 51 -43 13 -81 23
-83 21 -8 -9 177 -68 252 -81 186 -32 311 -29 454 10 29 8 55 13 58 10 9 -8
-89 -53 -162 -74 -90 -27 -236 -36 -353 -22 -72 8 -159 32 -380 105 -158 52
-334 103 -391 115 -127 25 -294 26 -406 4 -44 -9 -91 -18 -105 -20 -29 -5 127
53 180 67 154 39 429 40 565 2 14 -3 17 -2 10 5 -16 17 -153 41 -271 48 -115
6 -245 -10 -346 -43 -27 -8 -51 -13 -54 -10 -3 3 12 10 33 17 21 7 42 16 47
21 6 5 24 9 40 10 26 0 28 2 11 8 -51 21 245 71 420 71 135 0 289 -21 419 -56
324 -89 463 -120 582 -130 77 -7 302 13 321 28 15 12 75 29 69 19 -9 -14 -81
-39 -181 -61 -199 -46 -412 -43 -595 6 -132 36 -142 38 -86 14 170 -72 400
-97 594 -64 59 10 131 28 160 41 29 13 58 21 63 17 6 -3 23 5 37 18 15 14 58
48 96 77 38 28 67 51 65 51 -2 0 -37 -13 -76 -30 -40 -16 -89 -32 -108 -36
-19 -3 -38 -10 -40 -15 -3 -5 -20 -6 -38 -3 -24 4 -28 3 -17 -5 8 -6 13 -11
10 -12 -3 0 -50 -4 -105 -8 -157 -13 -270 7 -665 113 -193 52 -275 66 -446 73
-158 6 -255 -3 -389 -38 -38 -10 -81 -21 -95 -24 -57 -15 105 56 201 88 162
54 292 71 489 63 179 -7 316 -26 395 -55 53 -20 289 -122 340 -147 34 -17 169
-54 197 -54 10 0 18 5 18 10 0 6 -13 10 -29 10 -35 0 -178 44 -230 70 -20 10
-76 35 -126 55 -110 45 -125 57 -48 39 127 -31 307 -54 413 -54 138 0 225 19
347 75 135 63 216 122 396 287 103 95 154 159 80 100 -108 -85 -289 -119 -490
-91 -90 12 -329 72 -376 94 -18 9 -23 13 -12 9 11 -3 88 -8 170 -11 272 -10
498 33 700 134 95 47 309 184 322 206 4 8 40 38 78 67 89 69 235 200 235 211
0 5 -15 0 -32 -11 -18 -11 -41 -20 -51 -20 -10 0 -16 -4 -12 -10 3 -5 -18 -16
-47 -24 -151 -44 -493 -59 -698 -32 -58 8 -143 17 -190 20 -85 5 -85 5 -20 -5
282 -42 440 -60 545 -60 111 0 269 20 322 41 13 6 25 5 28 0 3 -5 -14 -14 -37
-21 -24 -6 -70 -20 -103 -30 -112 -36 -326 -61 -510 -61 -161 0 -324 7 -390
18 -23 3 -26 2 -10 -5 26 -11 184 -29 355 -41 227 -16 489 18 609 80 63 31 72
23 13 -11 -59 -35 -193 -76 -358 -111 -98 -21 -135 -23 -372 -23 -145 0 -249
-3 -230 -7 66 -15 411 -21 516 -9 110 12 285 51 340 76 45 21 59 19 31 -4 -60
-47 -174 -92 -364 -144 -82 -23 -124 -31 -280 -53 -27 -4 -57 -9 -65 -11 -8
-1 -55 -5 -105 -8 -49 -3 -121 -8 -160 -10 -38 -2 -135 -5 -215 -6 -143 -2
-144 -2 -55 -10 332 -27 726 7 947 81 92 31 133 34 62 4 -21 -9 -66 -29 -99
-44 -33 -15 -95 -37 -137 -49 -248 -70 -456 -84 -778 -55 -243 22 -562 23
-685 0 -149 -27 -293 -63 -357 -91 -13 -5 -18 -3 -18 9 0 9 20 24 48 37 26 11
71 32 100 45 185 86 542 162 777 165 44 1 107 5 140 9 84 12 -253 2 -379 -11
-149 -15 -246 -34 -405 -79 -79 -22 -146 -38 -149 -35 -3 2 22 16 54 31 32 14
100 45 150 69 100 47 250 89 382 105 89 11 118 20 66 20 -61 0 -203 -22 -299
-46 -127 -32 -116 -29 -145 -42 -84 -37 -120 -50 -120 -42 0 11 167 91 272
129 128 47 227 70 438 101 61 9 59 9 -30 4 -76 -4 -184 -19 -275 -38 -32 -7
-112 -31 -193 -58 -51 -17 -95 -28 -97 -26 -3 3 50 32 117 66 188 93 402 153
638 178 l125 13 -150 -4 c-170 -5 -354 -36 -425 -70 -39 -19 -70 -27 -70 -18
0 10 60 37 75 34 6 -2 4 3 -2 10 -10 10 -18 10 -35 1 -13 -6 -41 -16 -63 -23
-22 -6 -46 -16 -53 -22 -7 -5 -15 -7 -18 -4 -6 6 78 47 128 62 12 4 51 21 86
37 154 70 588 147 747 132 89 -8 278 -33 375 -50 171 -29 227 -35 335 -34 276
1 455 47 620 159 190 128 492 401 654 591 35 41 92 105 127 141 72 74 83 95
27 51 -187 -145 -397 -223 -658 -244 -109 -9 -166 -8 -257 2 -125 13 -157 30
-60 30 31 0 89 5 127 10 39 5 124 16 190 25 165 22 384 78 475 122 41 20 109
61 150 91 41 31 90 66 109 79 35 24 346 323 336 323 -4 0 -21 -10 -38 -23
-151 -110 -458 -180 -842 -192 -170 -5 -423 -22 -595 -39 -25 -3 -94 -10 -155
-16 -60 -6 -117 -14 -125 -17 -49 -20 -160 -49 -160 -41 0 4 8 8 18 8 14 0 15
2 2 10 -13 8 -12 10 3 10 9 0 17 4 17 8 0 4 -16 6 -35 4 -19 -2 -35 -8 -35
-13 0 -5 -4 -9 -10 -9 -25 0 -6 19 33 33 85 31 231 62 437 92 l95 14 -105 -5
c-94 -5 -138 -10 -262 -29 -24 -4 -38 -2 -38 4 0 6 6 11 13 11 7 0 31 9 53 19
51 25 106 39 234 62 103 18 104 19 30 13 -41 -3 -104 -11 -140 -19 -94 -20
-145 -26 -134 -16 27 26 338 89 529 107 39 4 64 9 57 12 -41 13 -348 -29 -491
-68 -48 -13 -51 -5 -4 10 21 7 43 18 48 24 6 7 26 18 45 25 19 8 49 20 65 27
54 23 237 62 370 78 72 9 162 20 200 25 122 15 3 12 -165 -4 -145 -13 -234
-26 -322 -45 -21 -4 -38 -5 -38 -1 0 11 64 32 200 66 8 3 41 11 72 20 85 23
378 74 498 87 114 12 163 30 59 21 -75 -6 -282 -36 -387 -57 -66 -12 -73 -12
-83 3 -10 15 -10 15 -5 -1 4 -13 -7 -19 -63 -29 -50 -8 -73 -9 -87 -1 -15 9
-12 10 17 5 21 -3 45 0 55 6 16 10 13 11 -18 6 -21 -3 -38 -4 -38 -1 0 5 60
23 100 31 8 2 42 10 75 18 33 8 103 23 155 33 52 10 88 20 79 22 -15 3 -243
-38 -296 -54 -13 -3 -23 -2 -23 3 0 10 146 43 455 103 88 18 169 33 180 36
130 26 186 36 275 49 58 9 119 19 135 24 250 73 362 115 458 173 91 55 145
103 250 227 167 195 294 313 381 352 14 7 26 15 26 18 -1 16 -153 68 -285 97
-103 23 -392 30 -427 10z m-343 -42 c-157 -65 -267 -132 -372 -227 -77 -69
-208 -205 -231 -240 -9 -12 -46 -57 -84 -100 -38 -43 -66 -83 -62 -88 8 -13
-32 -57 -71 -76 -21 -11 -26 -11 -17 -2 6 7 12 18 12 23 -1 6 -14 -5 -30 -24
-40 -46 -38 -27 3 35 65 96 138 217 128 211 -5 -3 -53 -71 -106 -151 -57 -84
-111 -153 -128 -164 -38 -24 -44 -21 -22 13 10 15 14 33 11 43 -4 10 -4 14 0
10 6 -6 54 73 54 89 0 12 -51 -56 -85 -114 -37 -64 -111 -150 -120 -140 -3 3
21 62 54 132 33 69 58 126 56 126 -5 0 -97 -165 -119 -215 -17 -36 -60 -84
-78 -85 -10 0 10 65 43 133 16 34 29 69 29 77 -1 8 -13 -12 -29 -45 -32 -70
-92 -165 -115 -184 -9 -7 -16 -19 -16 -27 0 -13 -40 -47 -47 -40 -2 2 4 19 14
37 17 31 64 133 99 217 30 68 2 28 -45 -65 -77 -157 -94 -183 -134 -220 -42
-38 -58 -38 -33 -1 16 25 77 198 70 198 -3 0 -15 -21 -26 -47 -42 -95 -112
-204 -151 -235 -32 -26 -38 -28 -28 -10 6 11 16 24 22 27 11 7 14 14 56 125
29 76 18 70 -17 -10 -23 -53 -50 -95 -37 -57 13 37 -4 14 -34 -45 -21 -41 -33
-57 -39 -48 -6 9 -9 8 -14 -7 -4 -11 -17 -30 -30 -42 -23 -21 -21 -15 19 100
23 68 46 133 49 144 8 22 -15 -23 -85 -170 -49 -101 -101 -176 -114 -163 -5 4
-3 13 2 20 14 18 86 238 80 244 -3 3 -17 -31 -32 -76 -15 -45 -29 -79 -32 -76
-3 2 0 21 7 41 7 20 10 38 8 40 -2 3 -12 -19 -22 -48 -31 -86 -66 -150 -104
-189 -34 -35 -67 -54 -44 -25 9 11 38 85 108 273 42 112 80 180 155 272 41 50
92 114 114 143 60 79 263 279 338 332 83 59 227 147 241 147 6 0 -5 -10 -23
-21 -148 -90 -313 -258 -395 -401 -23 -41 -13 -31 53 54 93 120 352 347 386
340 8 -1 17 3 21 9 5 9 2 10 -12 6 -15 -6 -14 -3 5 13 26 22 46 27 35 8 -4 -7
3 -3 15 10 22 22 58 31 45 11 -4 -8 0 -8 15 0 24 13 28 23 6 15 -8 -4 -15 -1
-15 4 0 10 24 23 125 67 38 17 139 45 160 44 6 0 -27 -13 -73 -29 -74 -26
-161 -69 -138 -70 4 0 -32 -26 -80 -59 -128 -84 -265 -210 -366 -335 -98 -121
-116 -155 -36 -68 188 206 304 309 464 414 108 71 266 147 329 159 22 4 49 11
60 15 11 4 17 4 13 -1 -4 -4 -39 -18 -79 -32 -150 -50 -409 -249 -532 -408
-23 -30 -13 -23 44 29 40 38 81 76 89 85 58 61 213 171 330 234 73 40 238 108
258 107 4 0 -29 -20 -73 -43 -149 -79 -322 -205 -410 -299 l-50 -53 48 45 c26
24 47 39 47 34 0 -6 -9 -19 -21 -30 -12 -10 -35 -37 -52 -59 -16 -22 -4 -12
28 23 129 141 435 343 539 356 20 3 41 8 46 11 6 3 10 4 10 1 0 -3 -32 -22
-71 -42 -89 -44 -240 -141 -237 -151 1 -5 -29 -39 -67 -77 -75 -75 -67 -69 65
43 47 39 91 76 98 82 17 14 171 101 207 118 44 20 197 70 215 70 8 0 -12 -11
-45 -25z m-238 0 c-3 -3 -12 -4 -19 -1 -8 3 -5 6 6 6 11 1 17 -2 13 -5z m1187
-84 c-6 -6 -36 -15 -69 -21 -32 -6 -95 -29 -139 -50 -98 -48 -122 -69 -46 -39
30 12 80 31 110 41 l55 20 -39 -33 c-98 -83 -393 -232 -609 -308 -182 -64
-453 -135 -647 -170 -36 -6 -70 -15 -75 -18 -6 -4 -3 0 7 10 10 9 44 24 75 34
35 11 50 20 39 22 -26 5 5 23 289 165 379 189 740 324 925 345 103 12 135 13
124 2z m-162 -142 c-13 -16 -72 -51 -72 -44 0 5 70 54 79 55 2 1 -1 -5 -7 -11z
m-90 -125 c-109 -118 -162 -169 -224 -215 -82 -61 -285 -155 -415 -192 -109
-32 -351 -74 -523 -91 -36 -4 -117 -16 -180 -27 -63 -10 -149 -23 -190 -28
-71 -8 -115 -17 -169 -35 -16 -5 -21 -4 -17 3 13 21 443 135 796 212 80 17
194 42 254 56 269 59 457 142 573 253 39 36 78 77 89 91 l19 25 -30 -25 c-17
-13 -37 -31 -45 -40 -30 -31 -119 -89 -196 -128 -195 -99 -326 -141 -704 -227
-107 -24 -258 -58 -335 -76 -77 -18 -150 -31 -162 -31 -12 1 -34 -3 -49 -8
-24 -9 -25 -9 -14 5 7 8 22 15 34 15 12 0 76 18 141 41 66 22 169 51 229 65
101 22 138 34 107 34 -27 0 -172 -33 -265 -61 -55 -16 -101 -27 -104 -24 -3 3
1 5 9 5 12 0 11 2 -1 10 -11 8 -8 9 12 4 15 -3 35 -1 45 5 15 9 13 10 -11 5
-21 -5 -27 -4 -22 5 5 7 18 11 29 10 12 -1 30 1 40 5 9 3 25 9 35 13 9 3 26 8
37 10 11 2 36 9 55 17 19 8 80 24 135 35 319 69 777 214 891 282 17 11 40 19
51 19 11 0 32 9 47 21 14 11 30 17 36 14 6 -4 24 5 41 19 56 48 42 27 -49 -71z
m-1397 -588 c-76 -16 -169 -25 -158 -14 4 4 44 12 88 17 113 13 140 12 70 -3z
m-208 -31 c-3 -3 -12 -4 -19 -1 -8 3 -5 6 6 6 11 1 17 -2 13 -5z m-72 -14 c-3
-5 -12 -10 -18 -10 -7 0 -6 4 3 10 19 12 23 12 15 0z m-40 -10 c-3 -5 -14 -10
-23 -9 -14 0 -13 2 3 9 27 11 27 11 20 0z m-305 -158 c0 -9 -59 -32 -81 -32
-8 0 4 9 26 19 46 22 55 24 55 13z m-110 -82 c-8 -5 -22 -9 -30 -9 -10 0 -8 3
5 9 27 12 43 12 25 0z m-369 -23 c-10 -9 -11 -8 -5 6 3 10 9 15 12 12 3 -3 0
-11 -7 -18z m-1503 -39 c-2 -5 -8 -9 -13 -9 -5 0 -11 4 -13 9 -1 5 4 9 13 9 9
0 14 -4 13 -9z m3212 -91 c0 -2 -35 -29 -77 -59 -85 -60 -212 -121 -338 -162
-72 -23 -275 -67 -365 -80 -19 -2 6 -3 56 0 50 2 122 10 160 19 113 25 122 26
79 6 -75 -34 -329 -91 -490 -110 -169 -20 -140 -28 36 -11 258 26 524 103 679
199 50 31 76 40 66 22 -12 -18 -172 -118 -246 -153 -94 -44 -229 -86 -355
-109 -27 -5 -84 -16 -125 -24 -214 -43 -414 -66 -640 -75 -402 -15 -481 -26
-847 -120 -18 -4 -33 -5 -33 -1 0 9 190 73 340 115 111 31 172 44 427 86 34 6
149 17 255 25 106 9 200 17 208 19 47 11 -346 -5 -475 -19 -208 -24 -576 -110
-597 -140 -4 -5 -8 -7 -8 -3 0 4 -18 1 -40 -8 -56 -23 -60 -12 -5 16 24 12 42
26 40 30 -3 5 5 6 17 4 14 -3 17 -1 8 3 -10 4 14 16 65 34 248 86 296 102 355
115 104 23 237 44 350 54 99 8 95 9 -65 5 -204 -4 -372 -33 -519 -88 -28 -11
-44 -11 -61 -3 -22 10 -21 11 17 28 22 10 48 18 57 18 9 0 21 4 27 9 17 17
148 59 279 89 224 53 378 70 935 102 237 14 430 41 600 82 41 10 102 34 185
73 30 14 45 18 45 12z m-1645 -37 c-3 -5 -12 -10 -18 -10 -7 0 -6 4 3 10 19
12 23 12 15 0z m-38 -66 c-3 -3 -12 -4 -19 -1 -8 3 -5 6 6 6 11 1 17 -2 13 -5z
m-2117 -151 c-16 -27 -38 -82 -49 -123 -40 -154 -44 -217 -37 -595 8 -387 1
-501 -36 -610 -20 -57 -68 -142 -68 -119 0 5 4 14 9 19 13 15 31 73 47 155 20
107 15 140 -7 45 l-18 -80 5 60 c2 33 7 87 11 120 3 33 3 58 0 55 -3 -3 -10
-50 -16 -105 -7 -55 -16 -109 -20 -120 -5 -11 -12 -28 -15 -38 -3 -10 -10 -15
-16 -12 -5 3 -10 -2 -10 -13 0 -22 -39 -122 -53 -137 -6 -6 -7 -1 -2 15 4 14
11 228 15 475 9 471 15 543 60 695 26 89 68 185 76 177 3 -3 -1 -28 -10 -55
-34 -101 -46 -217 -44 -407 1 -82 3 -125 5 -95 15 268 40 441 74 514 11 22 19
45 19 50 0 19 49 116 72 146 36 45 40 35 8 -17z m1950 43 c0 -2 -7 -7 -16 -10
-8 -3 -12 -2 -9 4 6 10 25 14 25 6z m50 -25 c0 -5 -12 -11 -27 -14 -26 -5 -26
-4 -8 9 22 16 35 18 35 5z m-109 -36 c-18 -8 -38 -15 -45 -15 -19 1 38 29 59
29 14 0 10 -4 -14 -14z m-81 -25 c-8 -5 -19 -10 -25 -10 -5 0 -3 5 5 10 8 5
20 10 25 10 6 0 3 -5 -5 -10z m-2019 -203 c-64 -149 -71 -216 -81 -717 -7
-392 -10 -443 -29 -515 -25 -96 -40 -135 -53 -135 -6 0 -7 7 -2 18 4 9 7 27 7
40 -1 12 2 22 6 22 6 0 1 151 -14 430 -4 76 -3 218 3 325 12 208 37 330 91
450 28 62 80 140 88 132 2 -2 -5 -25 -16 -50z m3558 17 c-61 -65 -259 -149
-439 -185 -86 -18 -286 -38 -379 -39 -52 0 -92 -3 -88 -6 10 -11 307 -6 397 6
119 16 257 53 347 95 42 19 78 33 80 31 6 -6 -88 -63 -151 -91 -136 -60 -414
-117 -656 -134 l-125 -8 108 -2 c236 -3 602 63 692 125 30 22 43 16 15 -6 -46
-37 -227 -130 -302 -156 -88 -30 -205 -60 -272 -69 -28 -4 -82 -15 -121 -25
-59 -15 -144 -20 -486 -30 -400 -10 -567 -20 -694 -39 -33 -5 -92 -14 -132
-20 -39 -6 -91 -17 -115 -26 -25 -8 -53 -16 -64 -18 -10 -2 -32 -9 -49 -16
-16 -7 -52 -22 -80 -33 -27 -11 -63 -26 -79 -34 -31 -16 -45 -14 -24 3 34 27
217 116 295 142 247 86 471 122 833 136 91 4 167 9 170 12 6 7 -353 -6 -480
-17 -78 -7 -231 -28 -325 -45 -81 -15 -204 -47 -247 -64 -21 -8 -28 -8 -28 2
0 7 15 17 33 24 273 100 390 129 622 157 72 9 144 17 160 19 23 3 20 4 -11 6
-144 5 -513 -58 -643 -110 -41 -16 -82 -28 -90 -27 -9 2 12 14 47 27 34 13 62
26 62 28 0 3 -7 3 -15 0 -8 -4 -17 -2 -20 4 -4 5 -3 9 2 8 4 -1 17 1 28 6 11
4 57 23 102 42 103 42 259 80 383 93 140 15 315 30 395 34 39 2 -13 2 -115 0
-102 -1 -238 -10 -303 -19 -65 -8 -122 -13 -126 -10 -5 3 -50 -5 -100 -18 -79
-20 -89 -21 -75 -6 28 31 283 105 499 145 62 11 168 18 340 21 217 4 269 2
397 -16 250 -35 451 -24 639 35 88 28 186 71 195 85 3 5 8 9 11 9 4 0 -4 -12
-18 -26z m-39 -58 c0 -2 -8 -10 -17 -17 -16 -13 -17 -12 -4 4 13 16 21 21 21
13z m-3665 -157 c-13 -41 -28 -110 -35 -154 -10 -74 -14 -490 -5 -560 10 -73
5 -286 -8 -352 -8 -40 -12 -73 -8 -73 3 0 -1 -6 -9 -13 -9 -7 -17 -27 -18 -46
-1 -18 -9 -43 -17 -54 -17 -24 -20 -6 -5 24 6 10 13 90 15 176 2 92 1 150 -4
138 -7 -17 -9 -15 -13 15 -3 22 -5 11 -6 -31 -3 -98 -40 -302 -58 -312 -8 -4
-14 -13 -14 -20 0 -7 4 -6 10 3 18 28 9 -5 -11 -40 l-19 -35 6 70 c3 38 10 75
15 82 7 8 7 19 -1 33 -8 16 -9 29 -1 48 5 15 8 63 6 107 -10 192 -14 373 -8
395 6 22 7 23 14 4 6 -13 8 -4 7 28 -1 26 1 51 5 54 4 4 7 -17 7 -46 0 -89 8
-52 13 65 6 116 33 282 49 302 6 7 25 54 43 105 32 92 66 170 71 165 2 -2 -7
-37 -21 -78z m1705 37 c0 -2 -7 -7 -16 -10 -8 -3 -12 -2 -9 4 6 10 25 14 25 6z
m-80 -41 c-14 -8 -29 -14 -35 -14 -5 0 1 6 15 14 14 8 30 14 35 14 6 0 -1 -6
-15 -14z m-10 -44 c0 -6 -4 -12 -8 -15 -5 -3 -9 1 -9 9 0 8 4 15 9 15 4 0 8
-4 8 -9z m-35 -20 c-3 -6 -14 -10 -23 -10 -15 1 -15 2 1 6 9 2 17 9 17 15 0 6
3 9 6 5 3 -3 3 -10 -1 -16z m-1896 -103 c-16 -29 -41 -89 -56 -133 -25 -72
-28 -93 -27 -205 1 -146 27 -275 99 -489 52 -155 56 -209 25 -341 -17 -67 -61
-170 -73 -170 -1 0 -4 52 -5 116 -2 89 -24 259 -35 271 -1 1 -2 -83 -2 -185
l0 -187 -35 -62 c-19 -35 -37 -63 -41 -63 -3 0 -1 33 4 73 5 39 6 104 3 144
-6 71 -13 101 -77 318 -30 103 -32 120 -33 270 -1 156 6 214 41 350 13 53 48
135 56 135 7 0 -6 -65 -14 -71 -12 -7 -27 -121 -23 -173 9 -121 15 -175 23
-209 12 -50 26 -63 17 -16 -8 47 -9 287 -1 336 12 70 48 168 80 219 29 46 92
124 100 124 2 0 -10 -24 -26 -52z m3686 44 c-74 -63 -247 -145 -400 -191 -83
-25 -344 -70 -412 -72 -104 -3 -108 -17 -5 -18 56 0 102 -5 102 -9 0 -5 7 -9
15 -9 8 0 15 3 15 7 0 4 33 11 73 15 176 18 294 49 410 107 82 41 63 19 -45
-52 -111 -73 -211 -113 -371 -147 -112 -24 -142 -26 -357 -27 -169 0 -274 5
-375 18 -129 17 -170 25 -134 27 8 0 28 2 44 4 17 1 118 6 225 9 234 8 482 24
489 32 16 15 -1047 -16 -1205 -36 -133 -17 -355 -72 -439 -110 -70 -31 -94
-34 -50 -6 50 31 118 70 125 71 3 0 21 10 40 22 52 32 330 119 455 143 182 35
375 49 732 55 363 6 480 14 668 46 118 20 296 73 365 110 38 20 49 23 35 11z
m-3458 -44 c-3 -8 -6 -5 -6 6 -1 11 2 17 5 13 3 -3 4 -12 1 -19z m1523 -8 c0
-5 -5 -10 -11 -10 -5 0 -7 5 -4 10 3 6 8 10 11 10 2 0 4 -4 4 -10z m-140 -114
c0 -11 -33 -36 -47 -36 -11 0 -9 6 8 20 23 18 39 25 39 16z m1407 -102 c-3 -3
-12 -4 -19 -1 -8 3 -5 6 6 6 11 1 17 -2 13 -5z m-2006 -27 c-10 -9 -11 -8 -5
6 3 10 9 15 12 12 3 -3 0 -11 -7 -18z m349 -72 c-14 -7 -27 -11 -30 -9 -6 7
22 24 40 23 9 0 5 -6 -10 -14z m-220 -243 c0 -8 -57 -32 -76 -32 -10 0 57 39
69 39 4 1 7 -3 7 -7z m-639 -165 c-10 -9 -11 -8 -5 6 3 10 9 15 12 12 3 -3 0
-11 -7 -18z m-1115 -244 c30 -62 78 -145 107 -185 86 -119 127 -238 127 -363
0 -75 -11 -136 -33 -182 -17 -38 -27 -26 -23 30 5 76 -28 171 -106 303 -82
139 -115 202 -140 273 -21 62 -35 203 -24 247 7 28 8 28 22 9 9 -11 40 -70 70
-132z m1406 127 c-12 -11 -27 -20 -34 -20 -7 0 1 9 17 20 38 25 45 25 17 0z
m-409 -65 c-3 -9 -8 -14 -10 -11 -3 3 -2 9 2 15 9 16 15 13 8 -4z m1154 -96
c43 -5 157 -32 253 -59 317 -89 455 -103 623 -62 49 12 92 22 95 22 23 -2 -98
-51 -173 -71 -80 -21 -113 -23 -290 -23 -153 0 -221 4 -288 18 -49 9 -91 16
-93 13 -2 -2 60 -17 138 -32 117 -23 168 -28 278 -28 74 1 155 6 180 12 102
23 108 24 61 2 -102 -49 -355 -77 -526 -59 l-60 7 70 -15 c51 -11 106 -14 205
-10 147 5 241 23 325 61 75 35 79 31 15 -12 -30 -20 -62 -44 -70 -54 -25 -27
-139 -66 -234 -78 -90 -12 -292 -15 -356 -5 -71 11 -156 25 -175 30 -16 4 -17
3 -5 -4 29 -19 227 -54 330 -59 74 -4 130 -1 189 11 47 8 86 14 88 12 6 -5
-96 -35 -180 -52 -139 -28 -324 -10 -702 70 -186 39 -296 49 -493 43 -205 -6
-368 -36 -516 -96 -16 -7 -31 -9 -34 -7 -2 3 8 10 24 16 16 6 57 22 91 36 34
13 66 24 72 24 6 0 11 4 11 9 0 5 12 12 28 15 15 4 61 20 102 36 81 31 287 66
435 74 86 5 315 -8 359 -19 16 -5 17 -4 6 3 -22 15 -139 30 -275 38 -127 7
-356 -14 -445 -40 -25 -8 -81 -22 -125 -31 -44 -10 -88 -22 -98 -27 -10 -5
-21 -7 -23 -5 -7 6 93 54 165 78 87 30 238 67 326 80 89 13 442 18 520 7 36
-5 42 -5 20 2 -84 25 -383 37 -517 21 -46 -6 -101 -12 -123 -15 -67 -7 -159
-26 -181 -37 -11 -6 -24 -9 -30 -8 -5 1 -22 -3 -37 -9 -34 -14 -37 -15 -37 -3
0 5 11 12 25 15 14 4 25 11 25 16 0 6 7 10 17 10 9 0 35 11 57 24 85 49 300
101 476 115 155 12 388 12 477 0z m-948 -60 c-22 -13 -31 -11 -17 5 7 8 17 12
22 9 4 -3 2 -9 -5 -14z m-139 -133 c0 -2 -11 -6 -25 -8 -13 -3 -22 -1 -19 3 5
9 44 13 44 5z m-100 -126 c0 -5 -5 -10 -11 -10 -5 0 -7 5 -4 10 3 6 8 10 11
10 2 0 4 -4 4 -10z m-250 -155 c-7 -8 -17 -15 -23 -15 -6 0 -2 7 9 15 25 19
30 19 14 0z m483 -244 c105 -30 229 -86 311 -139 44 -29 48 -32 147 -115 36
-30 81 -64 100 -76 18 -11 29 -21 23 -21 -42 0 -184 25 -207 37 -15 8 -37 11
-47 8 -20 -6 -151 58 -159 77 -2 5 -17 18 -35 29 -17 10 -26 19 -19 19 6 0 24
-11 40 -24 35 -29 73 -49 73 -39 -1 13 -109 79 -180 112 -76 34 -222 78 -295
89 -75 11 -375 8 -383 -4 -4 -6 -33 -16 -65 -23 -32 -7 -65 -21 -75 -30 -9
-10 -26 -21 -37 -25 -14 -5 -11 1 10 18 30 25 79 52 143 76 17 7 32 18 32 25
0 26 155 44 340 41 161 -3 184 -6 283 -35z m-643 -1 c-8 -5 -22 -9 -30 -9 -10
0 -8 3 5 9 27 12 43 12 25 0z m242 -139 c46 -11 107 -31 135 -45 29 -15 57
-26 61 -26 13 0 221 -137 289 -191 34 -27 88 -62 120 -79 l58 -30 -65 6 c-115
11 -210 40 -450 134 -132 52 -272 100 -320 110 -110 23 -200 31 -200 18 0 -7
-5 -6 -14 1 -10 9 -25 8 -61 -4 -26 -9 -49 -14 -52 -11 -13 13 13 25 90 41
123 26 331 17 441 -19 44 -14 81 -24 83 -22 7 6 -143 56 -217 72 -71 15 -190
15 -292 -2 -28 -4 -24 -1 22 22 96 47 237 56 372 25z m-602 -255 c0 -2 -7 -6
-15 -10 -8 -3 -15 -1 -15 4 0 6 7 10 15 10 8 0 15 -2 15 -4z m-306 -50 c62
-26 105 -123 77 -175 -15 -28 -29 -27 -41 4 -14 36 -87 102 -137 122 -48 20
-54 35 -20 51 31 15 82 14 121 -2z m-94 -93 c27 -16 50 -32 50 -36 0 -5 -6 -5
-12 -2 -7 4 -6 1 2 -7 8 -7 16 -20 18 -28 2 -10 -4 -7 -17 7 -11 12 -34 30
-51 39 -16 10 -30 22 -30 26 0 4 -9 8 -20 8 -11 0 -20 5 -20 10 0 17 28 11 80
-17z m-70 -50 c64 -45 116 -128 106 -169 -9 -34 -41 -31 -55 5 -13 30 -81 102
-81 85 0 -6 9 -19 20 -29 10 -9 18 -20 17 -24 0 -3 5 -17 12 -29 7 -13 10 -26
8 -29 -3 -3 -13 10 -22 29 -10 18 -39 54 -67 80 l-49 48 18 25 c21 29 58 32
93 8z m160 -48 c0 -8 -2 -15 -4 -15 -2 0 -6 7 -10 15 -3 8 -1 15 4 15 6 0 10
-7 10 -15z m-255 -63 c17 -16 34 -28 40 -28 5 1 11 -7 13 -18 4 -17 3 -18 -19
-2 -29 20 -50 21 -23 1 10 -8 15 -15 10 -15 -19 0 -55 42 -49 58 5 11 2 14 -8
10 -8 -3 -20 1 -27 8 -26 28 32 15 63 -14z m-53 -55 c47 -35 98 -123 98 -168
0 -20 -9 -34 -32 -50 -18 -13 -28 -16 -21 -8 19 23 -54 131 -113 169 -26 16
-52 31 -58 34 -15 7 41 56 64 56 10 0 38 -15 62 -33z m128 -47 c0 -5 -2 -10
-4 -10 -3 0 -8 5 -11 10 -3 6 -1 10 4 10 6 0 11 -4 11 -10z m50 -59 c0 -6 -4
-13 -10 -16 -5 -3 -10 1 -10 9 0 9 5 16 10 16 6 0 10 -4 10 -9z m-317 -19
c-44 -24 -137 -106 -164 -144 -18 -26 -11 -23 32 18 63 59 143 124 153 124 12
0 36 -28 36 -41 0 -25 -840 -869 -847 -851 -3 6 -10 12 -17 12 -7 0 177 190
408 421 232 232 415 420 408 418 -7 -3 -196 -188 -421 -412 -224 -224 -415
-407 -424 -407 -10 0 -27 6 -40 13 -12 6 -23 12 -25 13 -5 2 750 740 823 804
45 40 62 48 90 49 15 0 12 -4 -12 -17z m-134 -309 c-129 -128 -243 -239 -254
-245 -26 -14 -42 -31 230 246 132 134 244 241 249 238 5 -3 -97 -110 -225
-239z m-111 -150 c-6 -10 -32 -36 -57 -58 -51 -44 -27 -9 29 42 40 38 45 40
28 16z m-108 -107 c0 -2 -8 -10 -17 -17 -16 -13 -17 -12 -4 4 13 16 21 21 21
13z m-116 -78 c-27 -29 -76 -78 -108 -108 -32 -30 -84 -79 -114 -107 -30 -29
-60 -53 -66 -53 -6 0 66 74 159 164 166 160 227 209 129 104z m65 35 c-78 -95
-326 -349 -333 -342 -3 3 68 81 159 174 91 93 165 172 165 177 0 4 5 8 11 8 8
0 7 -6 -2 -17z m-458 -282 c54 -35 84 -67 99 -106 8 -21 8 -31 0 -33 -8 -3 -7
-8 1 -18 10 -12 9 -13 -5 -8 -11 4 -15 13 -11 25 5 14 2 17 -8 13 -9 -3 -27
10 -47 35 -17 23 -37 41 -43 41 -7 0 -34 11 -60 23 -48 24 -50 34 -7 50 27 10
35 7 81 -22z m-176 -71 c-3 -5 -11 -10 -16 -10 -6 0 -7 5 -4 10 3 6 11 10 16
10 6 0 7 -4 4 -10z m106 -12 c13 -19 14 -18 -52 -88 -43 -46 -59 -58 -56 -42
5 23 -8 31 -16 10 -3 -9 -12 -6 -30 11 l-26 24 19 25 c11 13 17 28 14 33 -3 5
1 9 9 9 8 0 22 9 33 21 15 17 27 20 58 16 21 -3 43 -11 47 -19z m44 -38 c4 -6
1 -18 -7 -27 -10 -13 -6 -12 17 3 l30 19 -22 -30 c-35 -50 -73 -81 -81 -67 -6
8 -13 6 -25 -8 -15 -18 -47 -28 -47 -14 0 3 16 22 35 42 20 20 43 49 53 65 17
28 36 35 47 17z m33 -68 c-21 -26 -98 -87 -98 -78 0 8 105 106 113 106 5 0 -2
-13 -15 -28z m-231 -29 c25 -23 45 -60 34 -65 -30 -12 -426 -370 -442 -400 -6
-11 -13 -18 -15 -15 -3 3 17 35 43 72 26 36 59 84 73 105 41 62 113 165 120
170 3 3 27 33 53 67 66 86 94 100 134 66z m-97 -3 c0 -5 -5 -10 -11 -10 -5 0
-7 5 -4 10 3 6 8 10 11 10 2 0 4 -4 4 -10z m220 -35 c-7 -8 -17 -15 -23 -15
-5 0 -2 9 8 20 21 23 35 19 15 -5z m-56 -51 c3 -9 6 -42 6 -74 0 -48 -4 -61
-19 -70 -30 -16 -41 -12 -41 15 0 19 -4 23 -17 18 -12 -4 -9 3 10 22 33 34 35
48 5 40 -20 -5 -21 -5 -5 5 10 7 22 23 27 36 11 28 25 31 34 8z m-114 -148 c0
-2 -8 -10 -17 -17 -16 -13 -17 -12 -4 4 13 16 21 21 21 13z"/>
<path d="M7858 8053 c-18 -21 -31 -43 -25 -43 2 0 13 14 25 30 25 33 24 41 0
13z"/>
<path d="M7630 7860 c-6 -11 -8 -20 -6 -20 3 0 10 9 16 20 6 11 8 20 6 20 -3
0 -10 -9 -16 -20z"/>
<path d="M7747 7795 c-10 -14 -14 -25 -10 -25 9 0 43 36 43 45 0 12 -17 2 -33
-20z"/>
<path d="M6805 7469 c-4 -6 -5 -12 -2 -15 2 -3 7 2 10 11 7 17 1 20 -8 4z"/>
<path d="M6996 7465 c-9 -26 -7 -32 5 -12 6 10 9 21 6 23 -2 3 -7 -2 -11 -11z"/>
<path d="M9145 8250 c-3 -6 1 -7 9 -4 18 7 21 14 7 14 -6 0 -13 -4 -16 -10z"/>
<path d="M8395 7960 c-3 -6 1 -7 9 -4 18 7 21 14 7 14 -6 0 -13 -4 -16 -10z"/>
<path d="M8248 7803 c6 -2 18 -2 25 0 6 3 1 5 -13 5 -14 0 -19 -2 -12 -5z"/>
<path d="M7568 6773 c12 -2 30 -2 40 0 9 3 -1 5 -23 4 -22 0 -30 -2 -17 -4z"/>
<path d="M6316 6685 c-4 -13 -2 -14 14 -5 23 13 26 20 6 20 -8 0 -16 -7 -20
-15z"/>
<path d="M4191 5514 c0 -11 3 -14 6 -6 3 7 2 16 -1 19 -3 4 -6 -2 -5 -13z"/>
<path d="M5678 4953 c7 -3 16 -2 19 1 4 3 -2 6 -13 5 -11 0 -14 -3 -6 -6z"/>
<path d="M4790 4242 c0 -9 81 -55 86 -49 3 3 -15 16 -40 30 -26 14 -46 23 -46
19z"/>
<path d="M3808 4323 c6 -2 18 -2 25 0 6 3 1 5 -13 5 -14 0 -19 -2 -12 -5z"/>
<path d="M1937 2769 c7 -7 15 -10 18 -7 3 3 -2 9 -12 12 -14 6 -15 5 -6 -5z"/>
<path d="M1799 2593 c-13 -16 -12 -17 4 -4 16 13 21 21 13 21 -2 0 -10 -8 -17
-17z"/>
<path d="M6231 7930 c-109 -57 -177 -118 -287 -262 -75 -98 -157 -239 -189
-322 -33 -86 -9 -64 45 41 95 184 139 245 293 401 79 80 124 117 223 179 41
26 5 10 -85 -37z"/>
<path d="M8004 7948 l-19 -23 23 19 c21 18 27 26 19 26 -2 0 -12 -10 -23 -22z"/>
<path d="M8980 7736 c-46 -43 -294 -113 -542 -153 -196 -31 -197 -40 -4 -24
170 15 329 53 436 104 47 22 88 40 91 39 4 -1 17 10 29 23 24 26 15 35 -10 11z"/>
<path d="M8934 7679 c-10 -12 -37 -30 -59 -41 -22 -11 -54 -31 -72 -44 -18
-13 -69 -43 -115 -66 -46 -22 -90 -46 -98 -53 -8 -6 -44 -20 -80 -29 -74 -21
-123 -40 -77 -31 15 3 27 3 27 1 0 -7 -141 -49 -245 -72 -55 -12 -89 -23 -75
-23 105 -3 547 147 612 207 15 14 30 23 33 20 14 -14 -64 -69 -191 -134 -183
-94 -380 -157 -704 -225 -74 -15 -119 -28 -100 -28 19 0 87 10 150 24 63 13
171 35 240 50 214 44 372 105 480 184 30 22 32 22 16 4 -34 -41 -308 -213
-338 -213 -5 0 -21 -9 -35 -20 -59 -47 -260 -93 -523 -120 -58 -7 -107 -13
-109 -16 -9 -8 187 -4 269 6 186 23 420 105 546 190 108 74 487 430 473 445
-3 3 -14 -4 -25 -16z m-94 -92 c0 -2 -10 -12 -22 -23 l-23 -19 19 23 c18 21
26 27 26 19z"/>
<path d="M7848 7493 c6 -2 18 -2 25 0 6 3 1 5 -13 5 -14 0 -19 -2 -12 -5z"/>
<path d="M7783 7483 c9 -2 23 -2 30 0 6 3 -1 5 -18 5 -16 0 -22 -2 -12 -5z"/>
<path d="M5721 7224 c0 -11 3 -14 6 -6 3 7 2 16 -1 19 -3 4 -6 -2 -5 -13z"/>
<path d="M6346 7225 c-3 -9 -6 -22 -5 -28 0 -7 5 -1 10 12 5 13 8 26 5 28 -2
2 -6 -3 -10 -12z"/>
<path d="M7468 7183 c7 -3 16 -2 19 1 4 3 -2 6 -13 5 -11 0 -14 -3 -6 -6z"/>
<path d="M5141 7115 c-32 -42 -117 -215 -139 -285 -36 -112 -59 -275 -41 -286
6 -4 9 2 8 12 -2 11 -1 24 3 29 3 6 16 55 27 110 12 55 26 114 31 130 6 17 19
58 30 91 19 61 59 144 94 197 23 34 14 36 -13 2z"/>
<path d="M7208 7103 c7 -3 16 -2 19 1 4 3 -2 6 -13 5 -11 0 -14 -3 -6 -6z"/>
<path d="M5141 7034 c0 -11 3 -14 6 -6 3 7 2 16 -1 19 -3 4 -6 -2 -5 -13z"/>
<path d="M5661 6944 c0 -11 3 -14 6 -6 3 7 2 16 -1 19 -3 4 -6 -2 -5 -13z"/>
<path d="M5471 6924 c0 -11 3 -14 6 -6 3 7 2 16 -1 19 -3 4 -6 -2 -5 -13z"/>
<path d="M4790 6772 c-5 -22 -14 -71 -19 -109 -6 -37 -15 -105 -21 -150 -7
-45 -10 -87 -8 -94 2 -6 12 45 21 113 10 67 24 157 31 198 16 83 13 105 -4 42z"/>
<path d="M5441 6754 c0 -11 3 -14 6 -6 3 7 2 16 -1 19 -3 4 -6 -2 -5 -13z"/>
<path d="M5616 6739 c-3 -18 -4 -34 -2 -36 2 -3 7 10 11 27 4 17 5 34 2 36 -2
3 -7 -10 -11 -27z"/>
<path d="M5641 6724 c0 -11 3 -14 6 -6 3 7 2 16 -1 19 -3 4 -6 -2 -5 -13z"/>
<path d="M5431 6674 c0 -11 3 -14 6 -6 3 7 2 16 -1 19 -3 4 -6 -2 -5 -13z"/>
<path d="M5618 6587 c-3 -19 -2 -25 4 -19 6 6 8 18 6 28 -3 14 -5 12 -10 -9z"/>
<path d="M5607 6526 c-4 -10 -7 -25 -6 -34 0 -11 4 -9 10 7 5 13 8 29 6 35 -2
5 -6 2 -10 -8z"/>
<path d="M4921 5974 c0 -11 3 -14 6 -6 3 7 2 16 -1 19 -3 4 -6 -2 -5 -13z"/>
<path d="M5938 5503 c7 -3 16 -2 19 1 4 3 -2 6 -13 5 -11 0 -14 -3 -6 -6z"/>
<path d="M3703 4965 c0 -22 2 -30 4 -17 2 12 2 30 0 40 -3 9 -5 -1 -4 -23z"/>
<path d="M3682 4925 c0 -16 2 -22 5 -12 2 9 2 23 0 30 -3 6 -5 -1 -5 -18z"/>
</g>
</svg>
