<?xml version="1.0" standalone="no"?>
<!DOCTYPE svg PUBLIC "-//W3C//DTD SVG 20010904//EN"
 "http://www.w3.org/TR/2001/REC-SVG-20010904/DTD/svg10.dtd">
<svg version="1.0" xmlns="http://www.w3.org/2000/svg"
 width="1024.000000pt" height="1024.000000pt" viewBox="0 0 1024.000000 1024.000000"
 preserveAspectRatio="xMidYMid meet">

<g transform="translate(0.000000,1024.000000) scale(0.100000,-0.100000)"
fill="currentColor" stroke="none">
<path d="M3733 8063 c-26 -40 -24 -168 5 -253 55 -162 133 -251 357 -405 63
-43 66 -52 11 -29 -14 5 -17 4 -12 -4 10 -17 -23 -3 -60 25 -35 26 -154 86
-160 80 -2 -1 17 -27 43 -56 l46 -53 -41 -81 c-135 -269 -169 -631 -84 -882
l27 -80 -55 -55 c-154 -152 -249 -494 -250 -900 0 -305 60 -636 181 -995 67
-197 122 -331 230 -554 49 -102 86 -188 82 -192 -5 -4 -53 -12 -107 -18 -110
-13 -178 -38 -196 -71 -17 -31 -4 -87 24 -105 28 -18 184 -34 338 -35 122 0
113 6 178 -112 19 -34 65 -94 102 -133 60 -62 67 -67 68 -45 0 14 -7 50 -15
80 -30 112 -13 132 25 28 51 -140 112 -233 200 -302 68 -54 111 -76 146 -76
23 0 26 3 21 28 -3 15 -15 54 -27 87 -35 100 -60 217 -59 280 l1 60 14 -50 c8
-27 26 -90 40 -140 49 -173 177 -366 278 -420 36 -19 36 -19 72 0 20 11 60 46
89 80 105 120 158 228 204 417 14 59 29 108 34 108 4 0 7 -24 7 -54 0 -55 -32
-188 -74 -311 -13 -38 -22 -73 -19 -77 8 -14 46 -8 90 13 99 48 205 177 263
321 16 42 30 83 30 92 0 8 5 18 10 21 15 9 12 -79 -4 -147 -8 -32 -12 -58 -10
-58 30 0 155 149 209 249 16 28 35 53 44 55 9 2 89 7 178 11 193 8 231 15 261
50 29 34 28 70 -2 100 -28 28 -71 41 -186 56 -47 7 -88 15 -93 19 -4 3 32 87
79 186 223 464 359 900 404 1299 13 114 13 382 0 503 -21 198 -80 411 -147
532 -20 36 -62 90 -93 120 l-56 56 17 39 c10 22 27 86 38 142 55 268 -3 612
-140 831 -12 19 -9 25 34 71 26 28 47 55 47 61 0 9 -76 -28 -135 -66 -27 -18
-167 -75 -172 -71 -2 2 36 29 85 60 170 108 318 281 362 424 37 121 19 263
-35 271 -13 2 -45 -19 -90 -58 -87 -75 -215 -140 -435 -219 -91 -32 -193 -71
-227 -86 l-62 -27 -83 16 c-298 57 -657 54 -923 -8 l-60 -14 -165 64 c-91 36
-201 79 -245 96 -162 62 -299 138 -373 207 -41 38 -56 39 -79 4z m197 -166
c77 -48 177 -97 353 -174 188 -81 365 -169 436 -217 29 -20 56 -36 59 -36 4 0
-22 29 -57 64 -35 35 -59 66 -54 69 36 23 314 57 461 57 129 0 311 -22 426
-52 l39 -10 -64 -64 c-35 -35 -59 -64 -54 -64 5 0 18 9 29 19 41 38 241 141
430 222 296 126 371 168 464 252 47 44 50 43 22 -13 -67 -132 -275 -277 -603
-420 -53 -24 -96 -44 -94 -46 8 -9 392 138 477 182 52 27 100 50 105 53 19 7
-151 -161 -235 -233 -176 -149 -274 -219 -646 -456 -134 -86 -228 -171 -271
-248 l-30 -53 -28 48 c-60 102 -161 188 -360 305 -316 187 -665 453 -770 585
-43 56 -53 82 -17 50 31 -28 201 -104 386 -171 99 -36 181 -65 182 -63 2 2
-67 36 -154 76 -289 134 -438 237 -521 362 -51 76 -52 94 -3 47 20 -20 62 -52
92 -71z m286 -691 l111 -60 -13 -33 c-41 -97 12 -246 111 -315 53 -37 154 -68
220 -68 63 0 172 32 209 61 14 11 26 18 26 14 0 -26 -65 -105 -86 -105 -7 0
-16 -5 -20 -11 -5 -9 4 -10 32 -5 48 10 91 31 126 64 l27 25 -6 -69 c-4 -59
-1 -79 21 -139 29 -74 102 -199 134 -229 19 -17 21 -16 57 31 20 26 58 90 83
142 45 90 47 98 46 173 l-2 79 22 -19 c30 -28 75 -49 121 -57 l40 -7 -36 26
c-37 26 -86 92 -76 103 3 3 18 -4 32 -15 76 -60 241 -75 350 -32 79 31 165
115 188 184 22 63 22 138 1 179 -9 17 -13 32 -8 34 5 2 54 28 108 58 72 40
102 52 107 43 5 -7 18 -49 31 -93 30 -107 33 -311 4 -395 -77 -228 -292 -415
-591 -516 l-70 -24 50 6 c127 14 312 79 419 148 202 129 298 296 314 546 l8
115 13 -55 c8 -30 16 -96 18 -145 14 -262 -133 -463 -422 -575 -44 -17 -89
-35 -100 -40 -17 -8 -17 -9 5 -5 14 3 88 14 165 25 154 22 251 25 306 10 33
-9 109 -73 109 -92 0 -4 -42 -8 -92 -8 -107 -1 -188 -23 -282 -80 -87 -52
-196 -159 -264 -257 -56 -84 -107 -173 -98 -173 2 0 24 28 49 63 72 100 190
201 332 283 l50 29 -23 -35 c-41 -63 -79 -144 -101 -214 -52 -167 -96 -535
-88 -721 6 -135 -3 -135 -34 2 -34 154 -36 401 -3 598 4 28 4 28 -6 6 -39 -89
-53 -454 -25 -626 18 -108 33 -164 73 -272 17 -45 34 -106 37 -135 l6 -53 -48
51 c-51 53 -111 157 -143 247 -23 64 -25 46 -4 -37 36 -143 98 -283 150 -340
26 -27 27 -32 21 -105 -16 -211 -152 -448 -277 -486 l-25 -7 26 28 c76 84 155
241 188 373 28 112 26 156 -2 61 -43 -144 -139 -294 -247 -386 -28 -23 -91
-64 -141 -91 -80 -42 -149 -98 -160 -131 -3 -7 -53 -12 -146 -13 l-143 -1 -49
54 c-34 38 -78 69 -138 101 -48 26 -110 66 -136 89 -103 88 -213 269 -241 398
-11 53 -14 58 -15 29 -3 -102 92 -344 178 -456 64 -84 0 -62 -86 29 -86 92
-143 224 -164 380 l-12 93 35 55 c57 89 88 157 129 282 21 65 39 122 39 126
-1 4 -25 -42 -55 -103 -29 -60 -75 -137 -102 -170 l-48 -60 -3 51 c-2 41 5 70
32 137 70 168 98 329 98 562 0 123 -4 184 -21 264 -20 100 -41 158 -27 76 33
-205 33 -418 -3 -580 -40 -184 -46 -175 -47 64 -2 392 -63 687 -170 829 -25
32 -24 32 61 -20 104 -63 198 -147 277 -246 32 -40 58 -70 58 -65 0 18 -90
166 -140 227 -149 188 -314 276 -515 276 l-88 0 25 32 c14 18 45 43 68 55 52
28 139 30 288 9 53 -8 129 -17 167 -20 l70 -6 -98 34 c-241 85 -374 209 -422
391 -24 95 -15 354 14 387 3 4 7 -43 9 -105 4 -197 56 -332 173 -448 111 -111
264 -190 454 -234 148 -34 193 -38 100 -9 -304 95 -528 279 -605 496 -48 138
-45 342 7 486 9 23 19 41 22 40 4 -2 56 -30 117 -62z m238 -122 c11 -4 16 -19
16 -50 0 -48 21 -107 48 -137 26 -29 87 -57 123 -57 33 0 119 44 119 60 0 6 5
10 10 10 34 0 -28 -86 -76 -106 -18 -8 -52 -14 -74 -14 -131 0 -251 144 -219
263 10 36 21 43 53 31z m1386 -13 c25 -47 4 -144 -42 -197 -90 -102 -259 -109
-317 -13 -26 42 -18 54 16 23 34 -32 92 -48 138 -40 80 15 163 140 137 208 -8
22 -7 28 7 31 35 10 51 6 61 -12z m-174 -68 c-13 -13 -34 7 -29 27 l6 21 14
-21 c8 -12 13 -24 9 -27z m-1058 14 c2 -10 -3 -17 -12 -17 -18 0 -29 16 -21
31 9 14 29 6 33 -14z m516 -337 c4 0 17 10 28 23 l19 22 -5 -58 c-6 -58 -32
-137 -46 -137 -12 0 -50 128 -50 168 l1 37 22 -27 c13 -16 26 -28 31 -28z
m-1349 -745 c-16 -103 -69 -311 -89 -356 l-16 -34 5 71 c8 111 92 421 109 403
2 -2 -2 -40 -9 -84z m333 -3 c23 -37 55 -103 70 -147 24 -73 27 -94 27 -230 0
-144 -1 -153 -28 -212 -33 -69 -66 -105 -118 -127 l-36 -15 1 330 c1 328 1
329 19 287 27 -64 67 -218 67 -260 0 -21 5 -38 10 -38 15 0 12 187 -4 272 -16
81 -50 183 -67 205 -9 10 -9 12 2 8 8 -3 33 -36 57 -73z m2057 1 c-38 -95 -55
-196 -55 -326 0 -60 2 -108 5 -105 3 2 14 49 25 104 19 99 56 222 68 236 4 4
7 -137 7 -313 0 -364 4 -349 -83 -280 -30 24 -59 59 -73 88 -22 44 -24 60 -24
208 0 153 1 164 31 246 27 77 112 225 122 214 3 -2 -8 -35 -23 -72z m335 -10
c34 -95 54 -182 65 -283 13 -125 -18 -43 -75 202 -28 119 -36 168 -26 168 2 0
18 -39 36 -87z m-2641 -216 c-18 -176 -69 -326 -142 -424 -75 -99 -73 -35 5
146 71 166 113 336 129 521 1 14 6 -13 10 -60 5 -50 4 -126 -2 -183z m2541
197 c0 -101 68 -344 143 -509 25 -55 37 -94 36 -125 l0 -45 -30 35 c-39 44
-102 168 -122 240 -32 112 -60 440 -37 440 6 0 10 -16 10 -36z m-95 -203 c16
-182 92 -580 121 -631 13 -23 14 -20 13 45 0 39 0 95 1 125 l2 55 15 -55 c10
-40 12 -87 8 -167 -3 -64 -1 -114 4 -117 5 -4 19 37 31 91 20 87 24 95 36 78
8 -10 14 -43 14 -73 0 -66 -29 -274 -40 -286 -5 -4 -20 11 -35 35 -85 133
-128 278 -166 554 -23 166 -37 459 -21 436 6 -8 13 -48 17 -90z m-2338 -43
c-7 -154 -60 -501 -93 -616 -31 -107 -67 -189 -110 -248 l-32 -46 -6 28 c-24
110 -35 357 -17 368 5 3 19 -36 31 -87 13 -50 26 -96 30 -100 4 -4 9 64 12
153 5 147 10 182 23 169 2 -3 7 -47 11 -99 4 -52 8 -96 9 -98 11 -13 92 388
115 568 14 106 19 130 27 130 3 0 3 -55 0 -122z m2053 -372 c11 -25 27 -94 36
-153 9 -59 27 -151 40 -203 l24 -95 -5 80 c-3 44 -8 117 -12 163 -4 55 -3 82
5 82 24 0 47 -133 58 -335 11 -202 21 -178 50 128 6 58 9 66 22 55 13 -11 14
-36 8 -168 -10 -204 -29 -400 -39 -401 -12 0 -79 96 -109 156 -59 117 -89 256
-108 499 -10 119 -7 236 6 236 2 0 13 -20 24 -44z m-1780 -90 c0 -213 -41
-448 -104 -590 -25 -56 -106 -180 -113 -172 -2 2 -11 84 -19 182 -16 177 -15
389 2 415 12 20 21 -31 35 -216 15 -190 22 -169 39 118 6 116 15 187 24 205
l14 27 7 -37 c4 -20 3 -94 -3 -165 -5 -70 -8 -129 -7 -131 5 -5 43 166 55 243
16 101 52 245 62 245 4 0 8 -56 8 -124z m-330 -466 c6 -52 23 -165 37 -250 25
-154 33 -324 19 -369 -7 -21 -11 -16 -37 45 -78 182 -155 455 -144 506 10 42
20 25 40 -64 21 -97 75 -263 99 -303 l17 -30 -6 68 c-3 38 -15 119 -26 180
-21 115 -35 354 -20 327 5 -8 14 -58 21 -110z m2450 14 c0 -27 -11 -115 -24
-195 -14 -80 -27 -179 -30 -220 l-7 -74 26 55 c29 61 64 174 90 294 16 70 19
77 31 61 15 -20 13 -40 -26 -190 -26 -100 -77 -245 -126 -365 l-19 -45 -6 65
c-7 71 6 272 21 335 5 22 17 103 25 180 9 77 19 148 22 159 9 32 23 -3 23 -60z
m-2170 -469 c-20 -208 -76 -523 -90 -508 -15 15 -82 208 -84 237 -2 43 20 43
42 0 18 -35 20 -36 30 -17 12 21 30 130 58 343 9 69 24 139 33 155 l16 30 3
-60 c2 -33 -1 -114 -8 -180z m1879 193 c6 -18 13 -58 16 -88 13 -115 27 -196
40 -215 6 -11 17 -51 24 -90 19 -111 20 -113 42 -66 37 84 54 28 20 -70 -32
-93 -64 -160 -72 -152 -13 14 -68 286 -84 415 -17 136 -20 298 -6 298 5 0 14
-15 20 -32z m-1988 -309 c-7 -18 -10 -2 -10 68 -1 120 13 155 17 42 1 -47 -2
-96 -7 -110z m2078 61 c0 -68 -3 -98 -9 -85 -12 29 -12 224 0 205 5 -8 9 -62
9 -120z m-254 -95 c-19 -87 -65 -183 -107 -225 -40 -40 -55 -38 -24 3 32 42
98 183 122 261 24 78 30 54 9 -39z m-1491 -145 c16 -30 39 -70 53 -88 37 -50
22 -49 -25 2 -53 58 -89 129 -107 217 -23 108 -17 113 19 14 18 -49 45 -115
60 -145z m-187 -243 c-2 -29 -11 -55 -22 -65 -17 -16 -17 -13 -11 63 3 44 9
91 13 105 6 23 8 22 16 -15 4 -22 6 -62 4 -88z m1825 -4 c2 -38 -1 -57 -9 -60
-29 -10 -45 106 -21 150 11 22 12 22 19 -6 4 -15 9 -52 11 -84z m-1227 65 c58
-45 68 -122 36 -283 l-17 -90 -21 34 c-12 19 -36 74 -54 123 -36 100 -38 181
-4 218 23 25 26 25 60 -2z m642 0 c19 -18 23 -32 23 -79 0 -72 -58 -241 -95
-278 l-25 -26 0 35 c0 19 -5 78 -12 131 -14 116 -2 176 44 214 36 30 36 30 65
3z m-803 -7 c27 -29 30 -88 10 -166 -10 -40 -17 -102 -16 -143 1 -73 0 -74
-19 -56 -79 71 -106 291 -44 358 29 31 46 33 69 7z m978 -13 c46 -65 22 -263
-42 -340 l-19 -23 -1 59 c0 33 -9 93 -21 135 -23 80 -20 137 7 179 20 31 49
27 76 -10z m157 -24 c53 -67 47 -206 -12 -286 l-32 -43 -6 75 c-3 41 -13 102
-22 135 -21 72 -21 86 -2 131 12 30 17 34 34 25 11 -6 29 -22 40 -37z m-1284
-15 c8 -26 -1 -96 -21 -151 -8 -22 -14 -65 -14 -96 l0 -55 -26 24 c-38 34 -54
79 -54 149 0 97 48 183 90 160 10 -5 22 -19 25 -31z m785 -154 l0 -45 -177 2
-178 3 -3 37 -3 38 178 3 c98 1 179 4 181 5 1 1 2 -18 2 -43z m-957 -22 c3
-16 3 -30 1 -32 -8 -8 -475 -23 -502 -16 -61 15 21 31 323 59 77 7 147 14 156
15 11 1 19 -9 22 -26z m1752 7 c139 -12 272 -29 298 -36 9 -3 14 -10 11 -16
-7 -10 -311 -5 -451 8 -62 6 -63 7 -63 36 0 30 1 30 43 24 23 -3 96 -10 162
-16z m-1165 -465 c16 -80 29 -103 30 -49 0 78 37 257 51 248 5 -3 9 -83 9
-177 0 -158 6 -233 26 -312 l7 -30 -22 19 c-36 32 -88 126 -116 210 -28 84
-44 231 -30 282 6 25 10 17 21 -51 7 -44 18 -107 24 -140z m291 149 c6 -33 14
-115 18 -184 6 -120 7 -123 19 -85 7 22 25 102 40 177 17 89 31 138 39 138 28
0 -3 -253 -42 -346 -18 -44 -104 -174 -114 -174 -5 0 -2 35 6 78 9 49 13 140
12 252 0 96 -1 184 0 194 2 33 11 12 22 -50z m-591 -36 c7 -35 26 -99 41 -143
15 -44 26 -81 24 -83 -12 -12 -88 147 -111 231 -15 58 -10 81 16 67 11 -6 22
-32 30 -72z m1030 56 c0 -42 -48 -172 -86 -231 -19 -30 -37 -53 -40 -51 -2 3
6 29 19 59 13 30 35 95 47 144 22 83 33 104 53 105 4 0 7 -12 7 -26z"/>
<path d="M4115 6760 c15 -53 71 -143 127 -205 62 -68 190 -159 271 -194 68
-29 58 -18 -20 24 -153 80 -264 185 -341 323 -24 42 -40 66 -37 52z"/>
<path d="M6105 6750 c-13 -43 -75 -131 -133 -193 -61 -63 -143 -125 -234 -177
-72 -40 -76 -49 -5 -14 96 49 189 117 257 192 68 74 135 182 127 205 -2 7 -7
1 -12 -13z"/>
<path d="M4656 5644 c24 -76 44 -145 44 -153 0 -8 3 -12 6 -8 9 8 -24 139 -54
217 -44 113 -42 87 4 -56z"/>
<path d="M5582 5708 c-30 -76 -54 -165 -50 -186 2 -9 10 8 18 38 7 30 24 86
37 124 27 83 24 99 -5 24z"/>
<path d="M4470 4517 c0 -1 9 -35 20 -75 35 -127 133 -296 215 -372 15 -14 2 9
-29 50 -64 86 -158 263 -181 345 -9 30 -18 55 -21 55 -2 0 -4 -1 -4 -3z"/>
<path d="M5737 4443 c-34 -96 -114 -245 -181 -334 -37 -48 -41 -57 -17 -35 36
35 118 151 150 214 32 64 82 203 79 221 -2 8 -16 -21 -31 -66z"/>
<path d="M4680 4419 c0 -30 60 -191 101 -269 74 -139 89 -139 21 0 -36 74 -78
169 -93 210 -15 41 -28 68 -29 59z"/>
<path d="M5536 4375 c-9 -30 -53 -127 -96 -215 -44 -88 -78 -160 -75 -160 8 0
112 183 139 243 28 64 61 175 54 182 -2 3 -12 -20 -22 -50z"/>
<path d="M4821 3554 c0 -11 3 -14 6 -6 3 7 2 16 -1 19 -3 4 -6 -2 -5 -13z"/>
<path d="M5401 3554 c0 -11 3 -14 6 -6 3 7 2 16 -1 19 -3 4 -6 -2 -5 -13z"/>
<path d="M4612 3550 c0 -14 2 -19 5 -12 2 6 2 18 0 25 -3 6 -5 1 -5 -13z"/>
<path d="M5782 3550 c0 -14 2 -19 5 -12 2 6 2 18 0 25 -3 6 -5 1 -5 -13z"/>
<path d="M4440 3559 c0 -5 5 -7 10 -4 6 3 10 8 10 11 0 2 -4 4 -10 4 -5 0 -10
-5 -10 -11z"/>
</g>
</svg>
